<svg xmlns="http://www.w3.org/2000/svg" width="580" height="298" fill="none"><path fill="#E33033" d="M255.685 72.457c-3.872 0-7.288-.805-10.247-2.415-2.958-1.61-5.243-3.873-6.853-6.788-1.61-2.915-2.415-6.265-2.415-10.05 0-5.44 1.132-10.27 3.394-14.49 2.306-4.264 5.505-7.571 9.595-9.92 4.133-2.35 8.854-3.525 14.163-3.525 3.959 0 7.418.805 10.377 2.415 3.002 1.566 5.308 3.807 6.918 6.722 1.61 2.872 2.415 6.2 2.415 9.986 0 5.395-1.153 10.225-3.459 14.49-2.306 4.263-5.526 7.592-9.659 9.985-4.134 2.393-8.877 3.59-14.229 3.59Zm1.958-11.879c2.568 0 4.808-.674 6.723-2.023 1.958-1.349 3.437-3.133 4.438-5.352 1.044-2.263 1.566-4.7 1.566-7.31 0-2.785-.761-4.938-2.284-6.461-1.479-1.567-3.611-2.35-6.396-2.35-2.567 0-4.83.675-6.788 2.023-1.958 1.306-3.459 3.068-4.503 5.287-1.045 2.22-1.567 4.656-1.567 7.31 0 2.741.762 4.917 2.285 6.527 1.523 1.566 3.698 2.35 6.526 2.35Zm57.769-25.52c3.568 0 6.352 1.023 8.354 3.068 2.002 2.045 3.002 4.895 3.002 8.55 0 1.262-.13 2.59-.391 3.982L322.591 72h-12.792l3.459-19.645a9.04 9.04 0 0 0 .196-1.763c0-1.566-.457-2.784-1.371-3.654-.87-.87-2.11-1.306-3.72-1.306-1.784 0-3.307.544-4.569 1.632-1.262 1.088-2.11 2.589-2.545 4.503L297.659 72h-12.857l8.55-48.298h12.857l-3.002 16.904c1.436-1.653 3.198-2.98 5.287-3.98 2.088-1.045 4.394-1.567 6.918-1.567Zm44.743 0c3.568 0 6.353 1.023 8.355 3.068 2.001 2.045 3.002 4.895 3.002 8.55 0 1.262-.131 2.59-.392 3.982L367.335 72h-12.793l3.46-19.645c.13-.653.195-1.24.195-1.763 0-1.566-.456-2.784-1.37-3.654-.87-.87-2.11-1.306-3.72-1.306-1.784 0-3.307.544-4.569 1.632-1.262 1.088-2.11 2.589-2.545 4.503L342.403 72h-12.858l8.55-48.298h12.858l-3.002 16.904c1.435-1.653 3.198-2.98 5.286-3.98 2.089-1.045 4.395-1.567 6.918-1.567Z"/><path fill="url(#a)" d="M90.995 157.133H63.024L56.534 170H33.486l42.629-78.88H101.4L116.17 170H93.01l-2.015-12.867Zm-2.573-16.671-3.916-25.622-12.979 25.622h16.895Zm119.37-49.342L193.918 170h-22.042l5.594-31.664h-26.629L145.247 170h-22.041l13.985-78.88h21.93l-5.259 29.762h26.741l5.259-29.762h21.93Zm34.031 0-7.943 45.762a23.15 23.15 0 0 0-.336 3.804c0 2.983.783 5.296 2.349 6.937 1.641 1.641 4.14 2.461 7.497 2.461 4.028 0 7.272-1.156 9.734-3.468 2.461-2.313 4.065-5.557 4.811-9.734l8.056-45.762h21.93l-8.056 45.762c-1.268 7.459-3.842 13.724-7.72 18.797-3.879 5.072-8.616 8.876-14.21 11.412-5.594 2.461-11.711 3.692-18.349 3.692-8.578 0-15.478-2.238-20.699-6.713-5.147-4.475-7.72-10.89-7.72-19.244 0-2.686.261-5.334.783-7.944l8.056-45.762h21.817Zm77.081 17.343-2.238 13.09h25.174l-3.021 16.671h-25.174l-2.573 14.322h28.531L336.582 170h-50.573l13.986-78.88h50.461l-3.021 17.343h-28.531Zm53.465 44.866h24.503L393.851 170h-46.545l13.986-78.88h21.93l-10.853 62.209Zm82.148 3.804h-27.972L420.056 170h-23.049l42.629-78.88h25.286L479.691 170h-23.16l-2.014-12.867Zm-2.574-16.671-3.916-25.622-12.978 25.622h16.894Zm96.229-55.16c7.161 0 12.792 1.641 16.895 4.923 4.177 3.207 6.265 7.907 6.265 14.098 0 1.864-.149 3.58-.447 5.146-1.194 6.788-4.401 12.159-9.622 16.112-5.222 3.953-11.525 6.005-18.909 6.154l-2.014 8.168h-19.357l3.245-22.266h8.056c5.594 0 9.846-.708 12.755-2.126 2.984-1.417 4.475-3.953 4.475-7.608 0-1.492-.447-2.648-1.342-3.468-.895-.821-2.089-1.231-3.581-1.231-2.088 0-3.804.634-5.146 1.902-1.268 1.268-2.089 2.909-2.462 4.923h-20.699c.672-4.625 2.35-8.802 5.035-12.531 2.685-3.73 6.303-6.676 10.853-8.84 4.55-2.237 9.883-3.356 16-3.356Zm-22.825 85.593c-3.431 0-6.154-.858-8.168-2.573-1.939-1.716-2.909-3.954-2.909-6.713 0-2.387.634-4.588 1.902-6.602 1.343-2.088 3.17-3.729 5.483-4.923 2.312-1.268 4.885-1.902 7.72-1.902 3.357 0 6.004.895 7.944 2.685 2.014 1.716 3.021 3.954 3.021 6.714 0 3.729-1.455 6.899-4.364 9.51-2.834 2.536-6.377 3.804-10.629 3.804Z"/><g clip-path="url(#b)"><mask id="c" width="539" height="89" x="23.524" y="138.438" fill="#000" maskUnits="userSpaceOnUse"><path fill="#fff" d="M23.524 138.438h539v89h-539z"/><path d="M84.035 211.681H56.303l-6.434 12.757H27.018l42.264-78.205h25.07l14.642 78.205H86.032l-1.997-12.757Zm-2.551-16.529L77.6 169.75l-12.867 25.402h16.75Zm118.348-48.919-13.755 78.205h-21.853l5.546-31.393h-26.401l-5.546 31.393H115.97l13.866-78.205h21.742l-5.214 29.507h26.512l5.214-29.507h21.742Zm33.741 0-7.876 45.37a22.968 22.968 0 0 0-.333 3.771c0 2.958.776 5.251 2.33 6.878 1.626 1.627 4.104 2.44 7.432 2.44 3.993 0 7.21-1.146 9.651-3.439 2.44-2.292 4.03-5.509 4.77-9.65l7.986-45.37h21.742l-7.986 45.37c-1.258 7.395-3.809 13.607-7.655 18.636-3.845 5.028-8.541 8.8-14.087 11.314-5.547 2.441-11.611 3.661-18.193 3.661-8.504 0-15.345-2.219-20.522-6.656-5.102-4.437-7.654-10.797-7.654-19.08 0-2.662.259-5.287.777-7.875l7.987-45.37h21.631Zm76.42 17.194-2.218 12.978h24.959l-2.995 16.529H304.78l-2.552 14.199h28.287l-2.995 17.305h-50.14l13.866-78.205h50.029l-2.995 17.194h-28.287Zm53.008 44.482h24.293l-2.995 16.529h-46.146l13.866-78.205h21.742l-10.76 61.676Zm81.445 3.772h-27.732l-6.434 12.757h-22.851l42.264-78.205h25.069l14.643 78.205h-22.962l-1.997-12.757Zm-2.551-16.529-3.883-25.402-12.868 25.402h16.751Zm95.405-54.688c7.099 0 12.683 1.627 16.75 4.881 4.141 3.18 6.212 7.839 6.212 13.977 0 1.849-.148 3.55-.444 5.103-1.183 6.73-4.363 12.054-9.54 15.974-5.176 3.919-11.425 5.953-18.747 6.101l-1.996 8.098h-19.191l3.217-22.075h7.987c5.546 0 9.762-.703 12.646-2.108 2.958-1.405 4.437-3.919 4.437-7.543 0-1.479-.444-2.625-1.331-3.439-.888-.813-2.071-1.22-3.55-1.22-2.071 0-3.772.629-5.103 1.886-1.257 1.257-2.07 2.884-2.44 4.881h-20.522c.665-4.585 2.329-8.727 4.992-12.424 2.662-3.698 6.249-6.619 10.76-8.764 4.511-2.218 9.799-3.328 15.863-3.328Zm-22.63 84.861c-3.402 0-6.101-.851-8.098-2.551-1.922-1.701-2.884-3.92-2.884-6.656 0-2.367.629-4.548 1.886-6.545 1.331-2.071 3.143-3.698 5.436-4.881 2.292-1.257 4.843-1.886 7.654-1.886 3.327 0 5.953.888 7.876 2.663 1.996 1.701 2.995 3.919 2.995 6.655 0 3.698-1.442 6.841-4.327 9.429-2.81 2.515-6.323 3.772-10.538 3.772Z"/></mask><path fill="#E33033" d="m84.035 211.681 1.843-.289-.247-1.576h-1.596v1.865Zm-27.732 0v-1.865h-1.148l-.517 1.025 1.665.84Zm-6.434 12.757v1.864h1.148l.517-1.025-1.665-.839Zm-22.851 0-1.64-.887-1.488 2.751h3.128v-1.864Zm42.264-78.205v-1.865H68.17l-.529.978 1.64.887Zm25.07 0 1.833-.344-.285-1.521h-1.548v1.865Zm14.642 78.205v1.864h2.247l-.414-2.208-1.833.344Zm-22.962 0-1.842.288.246 1.576h1.596v-1.864Zm-4.548-29.286v1.865h2.171l-.328-2.146-1.843.281ZM77.6 169.75l1.844-.282-.879-5.75-2.628 5.189 1.663.843Zm-12.867 25.402-1.664-.842-1.371 2.707h3.035v-1.865Zm19.301 16.529v-1.865H56.303v3.729h27.732v-1.864Zm-27.732 0-1.665-.84-6.434 12.757 1.665.84 1.665.839 6.434-12.757-1.665-.839Zm-6.434 12.757v-1.865H27.018v3.729h22.851v-1.864Zm-22.851 0 1.64.886 42.264-78.205-1.64-.886-1.64-.887-42.265 78.205 1.64.887Zm42.264-78.205v1.864h25.07v-3.729h-25.07v1.865Zm25.07 0-1.833.343 14.642 78.205 1.833-.343 1.833-.344-14.642-78.205-1.833.344Zm14.642 78.205v-1.865H86.032v3.729h22.962v-1.864Zm-22.962 0 1.842-.289-1.996-12.757-1.843.289-1.842.288 1.997 12.757 1.842-.288Zm-4.548-29.286 1.843-.281-3.882-25.403-1.844.282-1.843.281 3.883 25.403 1.843-.282ZM77.6 169.75l-1.663-.843L63.07 194.31l1.664.842 1.663.843 12.868-25.403-1.664-.842Zm-12.867 25.402v1.865h16.75v-3.73h-16.75v1.865Zm135.098-48.919 1.837.323.385-2.188h-2.222v1.865Zm-13.755 78.205v1.864h1.565l.272-1.541-1.837-.323Zm-21.853 0-1.836-.325-.387 2.189h2.223v-1.864Zm5.546-31.393 1.837.324.386-2.189h-2.223v1.865Zm-26.401 0v-1.865h-1.564l-.272 1.54 1.836.325Zm-5.546 31.393v1.864h1.564l.272-1.54-1.836-.324Zm-21.853 0-1.836-.326-.389 2.19h2.225v-1.864Zm13.866-78.205v-1.865h-1.563l-.273 1.539 1.836.326Zm21.742 0 1.836.324.387-2.189h-2.223v1.865Zm-5.214 29.507-1.836-.325-.387 2.189h2.223v-1.864Zm26.512 0v1.864h1.565l.272-1.54-1.837-.324Zm5.214-29.507v-1.865h-1.564l-.272 1.54 1.836.325Zm21.742 0-1.836-.323-13.756 78.204 1.837.324 1.837.323 13.755-78.205-1.837-.323Zm-13.755 78.205v-1.865h-21.853v3.729h21.853v-1.864Zm-21.853 0 1.836.324 5.547-31.393-1.837-.324-1.836-.325-5.546 31.393 1.836.325Zm5.546-31.393v-1.865h-26.401v3.729h26.401v-1.864Zm-26.401 0-1.836-.325-5.546 31.393 1.836.325 1.836.324 5.547-31.393-1.837-.324Zm-5.546 31.393v-1.865H115.97v3.729h21.853v-1.864Zm-21.853 0 1.836.325 13.866-78.205-1.836-.325-1.836-.326-13.866 78.205 1.836.326Zm13.866-78.205v1.864h21.742v-3.729h-21.742v1.865Zm21.742 0-1.836-.325-5.214 29.507 1.836.325 1.837.324 5.213-29.507-1.836-.324Zm-5.214 29.507v1.864h26.512v-3.729h-26.512v1.865Zm26.512 0 1.837.324 5.213-29.507-1.836-.324-1.836-.325-5.214 29.507 1.836.325Zm5.214-29.507v1.864h21.742v-3.729H178.09v1.865Zm55.483 0 1.837.319.379-2.184h-2.216v1.865Zm-7.876 45.37-1.838-.319-.002.012 1.84.307Zm1.997 10.649-1.349 1.287.015.016.015.015 1.319-1.318Zm17.083-.999-1.277-1.359 1.277 1.359Zm4.77-9.65 1.835.327.001-.004-1.836-.323Zm7.986-45.37v-1.865h-1.565l-.271 1.541 1.836.324Zm21.742 0 1.837.323.385-2.188h-2.222v1.865Zm-7.986 45.37-1.837-.324-.002.011 1.839.313Zm-7.655 18.636 1.482 1.132-1.482-1.132Zm-14.087 11.314.751 1.707.009-.004.009-.004-.769-1.699Zm-38.715-2.995-1.223 1.407.01.009 1.213-1.416Zm-6.877-26.955 1.828.365.004-.021.004-.021-1.836-.323Zm7.987-45.37v-1.865h-1.566l-.271 1.541 1.837.324Zm21.631 0-1.838-.319-7.876 45.37 1.838.319 1.837.318 7.876-45.369-1.837-.319Zm-7.876 45.37-1.84-.307a24.897 24.897 0 0 0-.358 4.078h3.73c0-1.067.1-2.221.307-3.465l-1.839-.306Zm-.333 3.771h-1.865c0 3.282.868 6.093 2.846 8.165l1.349-1.287 1.348-1.288c-1.128-1.182-1.813-2.956-1.813-5.59h-1.865Zm2.33 6.878-1.319 1.318c2.107 2.107 5.15 2.987 8.751 2.987v-3.73c-3.055 0-4.967-.747-6.114-1.894l-1.318 1.319Zm7.432 2.44v1.865c4.371 0 8.076-1.266 10.927-3.945l-1.276-1.359-1.277-1.359c-2.03 1.907-4.758 2.933-8.374 2.933v1.865Zm9.651-3.439 1.276 1.359c2.801-2.63 4.537-6.248 5.329-10.682l-1.835-.327-1.836-.328c-.688 3.849-2.131 6.665-4.211 8.619l1.277 1.359Zm4.77-9.65 1.836.323 7.987-45.37-1.837-.323-1.836-.324-7.987 45.37 1.837.324Zm7.986-45.37v1.864h21.742v-3.729h-21.742v1.865Zm21.742 0-1.836-.324-7.987 45.37 1.837.324 1.836.323 7.987-45.37-1.837-.323Zm-7.986 45.37-1.839-.313c-1.216 7.152-3.666 13.068-7.297 17.816l1.481 1.133 1.482 1.132c4.06-5.31 6.712-11.817 8.011-19.456l-1.838-.312Zm-7.655 18.636-1.481-1.133c-3.666 4.794-8.121 8.367-13.376 10.749l.77 1.698.769 1.699c5.838-2.647 10.775-6.618 14.8-11.881l-1.482-1.132Zm-14.087 11.314-.752-1.707c-5.289 2.328-11.095 3.503-17.441 3.503v3.73c6.818 0 13.141-1.266 18.944-3.819l-.751-1.707Zm-18.193 3.661v-1.865c-8.173 0-14.547-2.125-19.308-6.207l-1.214 1.416-1.213 1.416c5.592 4.793 12.899 7.105 21.735 7.105v-1.865Zm-20.522-6.656 1.224-1.407c-4.605-4.005-7.013-9.798-7.013-17.673h-3.73c0 8.691 2.696 15.618 8.296 20.487l1.223-1.407Zm-7.654-19.08h1.865c0-2.54.247-5.043.74-7.51l-1.828-.365-1.829-.366a41.918 41.918 0 0 0-.813 8.241h1.865Zm.777-7.875 1.836.323 7.987-45.37-1.836-.323-1.837-.324-7.987 45.37 1.837.324Zm7.987-45.37v1.864h21.631v-3.729h-21.631v1.865Zm98.051 17.194v-1.865h-1.573l-.265 1.55 1.838.315Zm-2.218 12.978-1.838-.314-.373 2.179h2.211v-1.865Zm24.959 0 1.835.333.398-2.198h-2.233v1.865Zm-2.995 16.529v1.864h1.557l.277-1.532-1.834-.332Zm-24.959 0v-1.865h-1.56l-.276 1.535 1.836.33Zm-2.552 14.199-1.835-.33-.394 2.194h2.229v-1.864Zm28.287 0 1.838.318.377-2.183h-2.215v1.865Zm-2.995 17.305v1.864h1.57l.267-1.546-1.837-.318Zm-50.14 0-1.836-.326-.388 2.19h2.224v-1.864Zm13.866-78.205v-1.865h-1.563l-.273 1.539 1.836.326Zm50.029 0 1.837.32.381-2.185h-2.218v1.865Zm-2.995 17.194v1.864h1.568l.269-1.544-1.837-.32Zm-28.287 0-1.838-.315-2.218 12.979 1.838.314 1.838.314 2.218-12.978-1.838-.314Zm-2.218 12.978v1.865h24.959v-3.73h-24.959v1.865Zm24.959 0-1.835-.332-2.995 16.528 1.835.333 1.834.332 2.996-16.528-1.835-.333Zm-2.995 16.529v-1.865H304.78v3.729h24.959v-1.864Zm-24.959 0-1.836-.33-2.551 14.199 1.835.33 1.836.329 2.551-14.199-1.835-.329Zm-2.552 14.199v1.864h28.287v-3.729h-28.287v1.865Zm28.287 0-1.837-.318-2.995 17.304 1.837.319 1.837.318 2.996-17.305-1.838-.318Zm-2.995 17.305v-1.865h-50.14v3.729h50.14v-1.864Zm-50.14 0 1.836.325 13.866-78.205-1.836-.325-1.836-.326-13.866 78.205 1.836.326Zm13.866-78.205v1.864h50.029v-3.729h-50.029v1.865Zm50.029 0-1.837-.32-2.995 17.194 1.837.32 1.837.32 2.995-17.194-1.837-.32Zm-2.995 17.194v-1.865h-28.287v3.729h28.287v-1.864Zm24.721 44.482-1.837-.32-.381 2.185h2.218v-1.865Zm24.293 0 1.835.333.398-2.198h-2.233v1.865Zm-2.995 16.529v1.864h1.557l.278-1.532-1.835-.332Zm-46.146 0-1.836-.326-.389 2.19h2.225v-1.864Zm13.866-78.205v-1.865h-1.563l-.273 1.539 1.836.326Zm21.742 0 1.837.32.381-2.185h-2.218v1.865Zm-10.76 61.676v1.865h24.293v-3.73h-24.293v1.865Zm24.293 0-1.835-.332-2.995 16.528 1.835.333 1.835.332 2.995-16.528-1.835-.333Zm-2.995 16.529v-1.865h-46.146v3.729h46.146v-1.864Zm-46.146 0 1.836.325 13.866-78.205-1.836-.325-1.836-.326-13.866 78.205 1.836.326Zm13.866-78.205v1.864h21.742v-3.729h-21.742v1.865Zm21.742 0-1.837-.321-10.76 61.677 1.837.32 1.837.321 10.76-61.677-1.837-.32Zm70.685 65.448 1.842-.289-.246-1.576h-1.596v1.865Zm-27.732 0v-1.865h-1.148l-.517 1.025 1.665.84Zm-6.434 12.757v1.864h1.148l.517-1.025-1.665-.839Zm-22.851 0-1.641-.887-1.487 2.751h3.128v-1.864Zm42.264-78.205v-1.865h-1.112l-.529.978 1.641.887Zm25.069 0 1.833-.344-.284-1.521h-1.549v1.865Zm14.643 78.205v1.864h2.246l-.413-2.208-1.833.344Zm-22.962 0-1.843.288.247 1.576h1.596v-1.864Zm-4.548-29.286v1.865h2.171l-.328-2.146-1.843.281Zm-3.883-25.402 1.844-.282-.879-5.75-2.628 5.189 1.663.843Zm-12.868 25.402-1.663-.842-1.372 2.707h3.035v-1.865Zm19.302 16.529v-1.865h-27.732v3.729h27.732v-1.864Zm-27.732 0-1.665-.84-6.434 12.757 1.665.84 1.665.839 6.434-12.757-1.665-.839Zm-6.434 12.757v-1.865h-22.851v3.729h22.851v-1.864Zm-22.851 0 1.64.886 42.264-78.205-1.64-.886-1.641-.887-42.264 78.205 1.641.887Zm42.264-78.205v1.864h25.069v-3.729h-25.069v1.865Zm25.069 0-1.832.343 14.642 78.205 1.833-.343 1.833-.344-14.643-78.205-1.833.344Zm14.643 78.205v-1.865h-22.962v3.729h22.962v-1.864Zm-22.962 0 1.842-.289-1.997-12.757-1.842.289-1.842.288 1.996 12.757 1.843-.288Zm-4.548-29.286 1.843-.281-3.882-25.403-1.844.282-1.843.281 3.882 25.403 1.844-.282Zm-3.883-25.402-1.663-.843-12.868 25.403 1.663.842 1.664.843 12.868-25.403-1.664-.842Zm-12.868 25.402v1.865h16.751v-3.73h-16.751v1.865Zm128.906-49.807-1.165 1.456.015.012.014.011 1.136-1.479Zm5.768 19.08-1.832-.349-.002.013-.002.013 1.836.323Zm-9.54 15.974 1.126 1.486-1.126-1.486Zm-18.747 6.101-.037-1.865-1.431.029-.342 1.389 1.81.447Zm-1.996 8.098v1.864h1.46l.35-1.418-1.81-.446Zm-19.191 0-1.845-.269-.311 2.133h2.156v-1.864Zm3.217-22.075v-1.865h-1.613l-.232 1.596 1.845.269Zm20.633-2.108-.8-1.684-.009.004-.008.004.817 1.676Zm-5.547-10.316-1.28-1.356-.02.018-.018.019 1.318 1.319Zm-2.44 4.881v1.864h1.551l.282-1.525-1.833-.339Zm-20.522 0-1.846-.268-.309 2.132h2.155v-1.864Zm4.992-12.424 1.513 1.089-1.513-1.089Zm10.76-8.764.8 1.684.012-.005.011-.006-.823-1.673Zm-14.865 78.982-1.235 1.396.013.012.013.011 1.209-1.419Zm-.998-13.201-1.569-1.008-.004.007-.005.007 1.578.994Zm5.436-4.881.855 1.657.021-.011.02-.011-.896-1.635Zm15.53.777-1.265 1.37.027.025.028.024 1.21-1.419Zm-1.332 16.084 1.244 1.39.002-.002-1.246-1.388Zm12.092-81.089v1.865c6.828 0 11.951 1.565 15.585 4.472l1.165-1.456 1.165-1.456c-4.5-3.6-10.545-5.29-17.915-5.29v1.865Zm16.75 4.881-1.136 1.479c3.598 2.763 5.483 6.825 5.483 12.498h3.73c0-6.603-2.256-11.859-6.941-15.456l-1.136 1.479Zm6.212 13.977h-1.865c0 1.751-.14 3.333-.411 4.754l1.832.349 1.832.349c.321-1.686.477-3.505.477-5.452h-1.865Zm-.444 5.103-1.836-.323c-1.107 6.293-4.049 11.191-8.829 14.81l1.125 1.487 1.126 1.486c5.573-4.219 8.991-9.97 10.251-17.137l-1.837-.323Zm-9.54 15.974-1.125-1.487c-4.824 3.652-10.679 5.582-17.659 5.723l.037 1.865.038 1.864c7.662-.155 14.305-2.292 19.835-6.479l-1.126-1.486Zm-18.747 6.101-1.81-.447-1.997 8.098 1.811.447 1.81.446 1.997-8.098-1.811-.446Zm-1.996 8.098v-1.865h-19.191v3.729h19.191v-1.864Zm-19.191 0 1.845.269 3.217-22.075-1.845-.269-1.845-.269-3.217 22.075 1.845.269Zm3.217-22.075v1.865h7.987v-3.73h-7.987v1.865Zm7.987 0v1.865c5.651 0 10.202-.708 13.462-2.296l-.816-1.677-.817-1.676c-2.508 1.221-6.388 1.919-11.829 1.919v1.865Zm12.646-2.108.8 1.684c1.773-.842 3.184-2.061 4.135-3.678.944-1.606 1.367-3.485 1.367-5.549h-3.73c0 1.559-.317 2.749-.852 3.658-.527.897-1.335 1.638-2.52 2.201l.8 1.684Zm4.437-7.543h1.865c0-1.873-.578-3.568-1.936-4.814l-1.26 1.375-1.26 1.375c.416.382.726.979.726 2.064h1.865Zm-1.331-3.439 1.26-1.375c-1.306-1.196-2.976-1.71-4.81-1.71v3.73c1.124 0 1.82.3 2.29.73l1.26-1.375Zm-3.55-1.22v-1.865c-2.48 0-4.66.767-6.383 2.395l1.28 1.356 1.281 1.355c.939-.886 2.16-1.376 3.822-1.376v-1.865Zm-5.103 1.886-1.318-1.319c-1.561 1.561-2.527 3.547-2.956 5.86l1.834.34 1.833.339c.312-1.68.972-2.948 1.926-3.902l-1.319-1.318Zm-2.44 4.881v-1.865h-20.522v3.729h20.522v-1.864Zm-20.522 0 1.845.267c.624-4.293 2.176-8.152 4.66-11.602l-1.513-1.089-1.514-1.09c-2.84 3.945-4.616 8.369-5.324 13.246l1.846.268Zm4.992-12.424 1.513 1.089c2.461-3.418 5.792-6.146 10.047-8.169l-.8-1.684-.801-1.684c-4.767 2.266-8.609 5.381-11.473 9.358l1.514 1.09Zm10.76-8.764.823 1.673c4.207-2.069 9.203-3.136 15.04-3.136v-3.73c-6.292 0-11.871 1.152-16.686 3.52l.823 1.673Zm-6.767 81.533v-1.865c-3.093 0-5.319-.769-6.888-2.106l-1.21 1.42-1.209 1.419c2.424 2.065 5.596 2.997 9.307 2.997v-1.865Zm-8.098-2.551 1.236-1.397c-1.494-1.322-2.255-3.017-2.255-5.259h-3.73c0 3.23 1.162 5.972 3.514 8.052l1.235-1.396Zm-2.884-6.656h1.865c0-2.016.53-3.853 1.599-5.551l-1.578-.994-1.578-.994a13.916 13.916 0 0 0-2.173 7.539h1.865Zm1.886-6.545 1.569 1.008c1.145-1.782 2.705-3.191 4.722-4.232l-.855-1.657-.856-1.657c-2.568 1.326-4.632 3.17-6.149 5.53l1.569 1.008Zm5.436-4.881.896 1.635c1.997-1.095 4.237-1.656 6.758-1.656v-3.729c-3.1 0-5.963.696-8.551 2.115l.897 1.635Zm7.654-1.886v1.865c2.991 0 5.119.791 6.611 2.168l1.265-1.37 1.264-1.371c-2.353-2.172-5.476-3.156-9.14-3.156v1.864Zm7.876 2.663-1.21 1.419c1.561 1.33 2.34 3.019 2.34 5.236h3.729c0-3.255-1.217-6.003-3.65-8.075l-1.209 1.42Zm2.995 6.655h-1.865c0 3.14-1.196 5.788-3.707 8.042l1.245 1.387 1.246 1.388c3.257-2.923 4.945-6.561 4.945-10.817h-1.864Zm-4.327 9.429-1.243-1.389c-2.427 2.171-5.48 3.296-9.295 3.296v3.73c4.616 0 8.589-1.39 11.782-4.247l-1.244-1.39Z" mask="url(#c)"/></g><g clip-path="url(#d)"><mask id="e" width="543" height="90" x="21.524" y="157.454" fill="#000" maskUnits="userSpaceOnUse"><path fill="#fff" d="M21.524 157.454h543v90h-543z"/><path d="M82.217 231.587H54.245l-6.49 12.867H24.708l42.629-78.88h25.286l14.769 78.88h-23.16l-2.014-12.867Zm-2.574-16.671-3.916-25.622-12.979 25.622h16.895Zm119.37-49.342-13.874 78.88h-22.042l5.595-31.664h-26.629l-5.595 31.664h-22.041l13.986-78.88h21.929l-5.258 29.761h26.74l5.259-29.761h21.93Zm34.032 0-7.944 45.761a23.17 23.17 0 0 0-.336 3.804c0 2.984.783 5.296 2.35 6.937 1.641 1.641 4.14 2.462 7.496 2.462 4.028 0 7.273-1.156 9.734-3.469 2.462-2.312 4.065-5.557 4.811-9.734l8.056-45.761h21.93l-8.056 45.761c-1.268 7.459-3.841 13.725-7.72 18.797-3.879 5.072-8.615 8.876-14.21 11.413-5.594 2.461-11.71 3.692-18.349 3.692-8.578 0-15.478-2.238-20.699-6.713-5.147-4.476-7.72-10.891-7.72-19.245 0-2.685.261-5.333.783-7.944l8.056-45.761h21.818Zm77.08 17.342-2.238 13.091h25.174l-3.02 16.671h-25.175l-2.573 14.321h28.531l-3.021 17.455H277.23l13.986-78.88h50.461l-3.021 17.342h-28.531Zm53.465 44.867h24.503l-3.021 16.671h-46.545l13.986-78.88h21.93l-10.853 62.209Zm82.148 3.804h-27.972l-6.489 12.867h-23.049l42.629-78.88h25.286l14.769 78.88h-23.16l-2.014-12.867Zm-2.573-16.671-3.916-25.622-12.979 25.622h16.895Zm96.228-55.16c7.161 0 12.792 1.641 16.895 4.923 4.177 3.207 6.266 7.906 6.266 14.097 0 1.865-.15 3.581-.448 5.147-1.193 6.788-4.401 12.158-9.622 16.112-5.222 3.953-11.525 6.004-18.909 6.153l-2.014 8.168h-19.356l3.244-22.265h8.056c5.594 0 9.846-.709 12.755-2.126 2.984-1.417 4.476-3.953 4.476-7.608 0-1.492-.448-2.648-1.343-3.469-.895-.82-2.089-1.231-3.58-1.231-2.089 0-3.804.634-5.147 1.903-1.268 1.268-2.089 2.909-2.462 4.923h-20.699c.672-4.625 2.35-8.802 5.035-12.532 2.686-3.729 6.303-6.676 10.853-8.839 4.55-2.238 9.884-3.356 16-3.356Zm-22.825 85.593c-3.431 0-6.154-.858-8.167-2.574-1.94-1.715-2.91-3.953-2.91-6.713 0-2.387.634-4.587 1.903-6.601 1.342-2.089 3.17-3.73 5.482-4.923 2.312-1.268 4.886-1.902 7.72-1.902 3.357 0 6.005.895 7.944 2.685 2.014 1.716 3.021 3.953 3.021 6.713 0 3.73-1.455 6.9-4.364 9.511-2.834 2.536-6.377 3.804-10.629 3.804Z"/></mask><path fill="#E33033" d="m82.217 231.587 1.842-.289-.247-1.576h-1.595v1.865Zm-27.972 0v-1.865h-1.148l-.517 1.025 1.665.84Zm-6.49 12.867v1.864h1.149l.517-1.025-1.665-.839Zm-23.048 0-1.64-.887-1.487 2.751h3.127v-1.864Zm42.629-78.88v-1.865h-1.112l-.529.978 1.64.887Zm25.286 0 1.833-.343-.285-1.522h-1.548v1.865Zm14.769 78.88v1.864h2.246l-.413-2.208-1.833.344Zm-23.16 0-1.843.288.247 1.576h1.596v-1.864Zm-4.588-29.538v1.864h2.172l-.328-2.146-1.844.282Zm-3.916-25.622 1.844-.282-.88-5.749-2.627 5.188 1.663.843Zm-12.979 25.622-1.663-.843-1.372 2.707h3.035v-1.864Zm19.469 16.671v-1.865H54.245v3.729h27.972v-1.864Zm-27.972 0-1.665-.84-6.49 12.867 1.666.84 1.665.839 6.489-12.867-1.665-.839Zm-6.49 12.867v-1.865H24.708v3.729h23.049v-1.864Zm-23.048 0 1.64.886 42.63-78.88-1.641-.886-1.64-.887-42.63 78.88 1.641.887Zm42.629-78.88v1.864h25.286v-3.729H67.336v1.865Zm25.286 0-1.833.343 14.769 78.88 1.833-.343 1.833-.344-14.769-78.879-1.833.343Zm14.769 78.88v-1.865h-23.16v3.729h23.16v-1.864Zm-23.16 0 1.842-.289-2.014-12.867-1.842.289-1.843.288 2.014 12.867 1.843-.288Zm-4.588-29.538 1.844-.282-3.916-25.622-1.844.282-1.843.281 3.916 25.622 1.843-.281Zm-3.916-25.622-1.663-.843-12.98 25.622 1.664.843 1.664.842 12.979-25.622-1.664-.842Zm-12.979 25.622v1.864h16.895v-3.729H62.748v1.865Zm136.265-49.342 1.836.323.385-2.188h-2.221v1.865Zm-13.874 78.88v1.864h1.565l.272-1.541-1.837-.323Zm-22.042 0-1.836-.325-.387 2.189h2.223v-1.864Zm5.595-31.664 1.836.324.387-2.189h-2.223v1.865Zm-26.629 0v-1.865h-1.564l-.273 1.54 1.837.325Zm-5.595 31.664v1.864h1.565l.272-1.54-1.837-.324Zm-22.041 0-1.836-.326-.389 2.19h2.225v-1.864Zm13.986-78.88v-1.865h-1.564l-.273 1.539 1.837.326Zm21.929 0 1.837.324.386-2.189h-2.223v1.865Zm-5.258 29.761-1.837-.324-.387 2.189h2.224v-1.865Zm26.74 0v1.865h1.565l.272-1.54-1.837-.325Zm5.259-29.761v-1.865h-1.564l-.272 1.54 1.836.325Zm21.93 0-1.837-.323-13.874 78.88 1.837.323 1.837.323 13.873-78.88-1.836-.323Zm-13.874 78.88v-1.865h-22.042v3.729h22.042v-1.864Zm-22.042 0 1.837.324 5.594-31.664-1.836-.324-1.837-.325-5.594 31.664 1.836.325Zm5.595-31.664v-1.865h-26.629v3.73h26.629v-1.865Zm-26.629 0-1.837-.325-5.594 31.664 1.836.325 1.837.324 5.594-31.664-1.836-.324Zm-5.595 31.664v-1.865h-22.041v3.729h22.041v-1.864Zm-22.041 0 1.836.325 13.986-78.88-1.836-.325-1.837-.326-13.985 78.88 1.836.326Zm13.986-78.88v1.864h21.929v-3.729h-21.929v1.865Zm21.929 0-1.836-.325-5.259 29.762 1.837.324 1.836.325 5.259-29.762-1.837-.324Zm-5.258 29.761v1.865h26.74v-3.729h-26.74v1.864Zm26.74 0 1.837.325 5.258-29.762-1.836-.324-1.836-.325-5.259 29.762 1.836.324Zm5.259-29.761v1.864h21.93v-3.729h-21.93v1.865Zm55.962 0 1.837.319.379-2.184h-2.216v1.865Zm-7.944 45.761-1.838-.319-.002.013 1.84.306Zm2.014 10.741-1.349 1.288.015.016.015.015 1.319-1.319Zm17.23-1.007-1.277-1.359 1.277 1.359Zm4.811-9.734 1.836.328.001-.004-1.837-.324Zm8.056-45.761v-1.865h-1.565l-.271 1.541 1.836.324Zm21.93 0 1.836.323.386-2.188h-2.222v1.865Zm-8.056 45.761-1.837-.323-.001.011 1.838.312Zm-7.72 18.797 1.481 1.133-1.481-1.133Zm-14.21 11.413.751 1.706.01-.004.009-.004-.77-1.698Zm-39.048-3.021-1.224 1.407.01.008 1.214-1.415Zm-6.937-27.189 1.829.366.004-.021.004-.021-1.837-.324Zm8.056-45.761v-1.865h-1.565l-.272 1.541 1.837.324Zm21.818 0-1.838-.319-7.944 45.761 1.838.319 1.837.319 7.944-45.761-1.837-.319Zm-7.944 45.761-1.84-.306a25.077 25.077 0 0 0-.361 4.11h3.73c0-1.077.101-2.242.31-3.497l-1.839-.307Zm-.336 3.804H222.9c0 3.308.874 6.139 2.866 8.225l1.349-1.288 1.349-1.287c-1.142-1.196-1.834-2.99-1.834-5.65h-1.865Zm2.35 6.937-1.319 1.319c2.121 2.121 5.185 3.008 8.815 3.008v-3.73c-3.083 0-5.017-.754-6.178-1.915l-1.318 1.318Zm7.496 2.462v1.865c4.405 0 8.139-1.276 11.011-3.975l-1.277-1.359-1.277-1.359c-2.05 1.927-4.806 2.963-8.457 2.963v1.865Zm9.734-3.469 1.277 1.359c2.822-2.65 4.572-6.295 5.37-10.765l-1.836-.328-1.835-.328c-.694 3.885-2.151 6.729-4.253 8.703l1.277 1.359Zm4.811-9.734 1.837.324 8.056-45.762-1.837-.323-1.836-.324-8.056 45.762 1.836.323Zm8.056-45.761v1.864h21.93v-3.729h-21.93v1.865Zm21.93 0-1.837-.324-8.055 45.762 1.836.323 1.837.324 8.055-45.762-1.836-.323Zm-8.056 45.761-1.838-.312c-1.227 7.216-3.7 13.185-7.363 17.976l1.481 1.133 1.481 1.133c4.094-5.353 6.768-11.915 8.077-19.617l-1.838-.313Zm-7.72 18.797-1.481-1.133c-3.7 4.838-8.196 8.443-13.499 10.847l.77 1.699.77 1.698c5.886-2.668 10.863-6.672 14.921-11.978l-1.481-1.133Zm-14.21 11.413-.751-1.707c-5.338 2.348-11.196 3.534-17.598 3.534v3.73c6.875 0 13.25-1.276 19.1-3.851l-.751-1.706Zm-18.349 3.692v-1.865c-8.247 0-14.679-2.145-19.485-6.264l-1.214 1.416-1.214 1.415c5.637 4.832 13.004 7.163 21.913 7.163v-1.865Zm-20.699-6.713 1.224-1.408c-4.65-4.043-7.079-9.89-7.079-17.837h-3.73c0 8.762 2.717 15.744 8.361 20.652l1.224-1.407Zm-7.72-19.245h1.865c0-2.563.249-5.089.747-7.578l-1.829-.366-1.829-.365a42.296 42.296 0 0 0-.819 8.309h1.865Zm.783-7.944 1.837.324 8.055-45.762-1.836-.323-1.837-.324-8.056 45.762 1.837.323Zm8.056-45.761v1.864h21.818v-3.729h-21.818v1.865Zm98.898 17.342v-1.865h-1.573l-.265 1.551 1.838.314Zm-2.238 13.091-1.838-.314-.373 2.179h2.211v-1.865Zm25.174 0 1.835.332.399-2.197h-2.234v1.865Zm-3.02 16.671v1.865h1.557l.277-1.533-1.834-.332Zm-25.175 0v-1.865h-1.559l-.276 1.535 1.835.33Zm-2.573 14.321-1.836-.329-.394 2.194h2.23v-1.865Zm28.531 0 1.837.318.378-2.182h-2.215v1.864Zm-3.021 17.455v1.864h1.57l.267-1.546-1.837-.318Zm-50.573 0-1.836-.326-.388 2.19h2.224v-1.864Zm13.986-78.88v-1.865h-1.563l-.273 1.539 1.836.326Zm50.461 0 1.837.32.38-2.185h-2.217v1.865Zm-3.021 17.342v1.865h1.568l.269-1.545-1.837-.32Zm-28.531 0-1.838-.314-2.238 13.091 1.838.314 1.838.314 2.238-13.091-1.838-.314Zm-2.238 13.091v1.865h25.174v-3.73h-25.174v1.865Zm25.174 0-1.834-.333-3.021 16.671 1.835.333 1.834.332 3.021-16.671-1.835-.332Zm-3.02 16.671v-1.865h-25.175v3.73h25.175v-1.865Zm-25.175 0-1.835-.33-2.574 14.322 1.836.329 1.835.33 2.573-14.321-1.835-.33Zm-2.573 14.321v1.865h28.531v-3.729h-28.531v1.864Zm28.531 0-1.838-.318-3.021 17.455 1.838.318 1.837.318 3.021-17.455-1.837-.318Zm-3.021 17.455v-1.865H277.23v3.729h50.573v-1.864Zm-50.573 0 1.836.325 13.986-78.88-1.836-.325-1.836-.326-13.986 78.88 1.836.326Zm13.986-78.88v1.864h50.461v-3.729h-50.461v1.865Zm50.461 0-1.837-.32-3.021 17.342 1.837.32 1.837.32 3.021-17.342-1.837-.32Zm-3.021 17.342v-1.865h-28.531v3.73h28.531v-1.865Zm24.934 44.867-1.837-.321-.381 2.185h2.218v-1.864Zm24.503 0 1.835.332.398-2.197h-2.233v1.865Zm-3.021 16.671v1.864h1.557l.278-1.532-1.835-.332Zm-46.545 0-1.836-.326-.388 2.19h2.224v-1.864Zm13.986-78.88v-1.865h-1.563l-.273 1.539 1.836.326Zm21.93 0 1.837.32.381-2.185h-2.218v1.865Zm-10.853 62.209v1.864h24.503v-3.729H363.59v1.865Zm24.503 0-1.835-.333-3.021 16.671 1.835.333 1.835.332 3.021-16.671-1.835-.332Zm-3.021 16.671v-1.865h-46.545v3.729h46.545v-1.864Zm-46.545 0 1.836.325 13.986-78.88-1.836-.325-1.836-.326-13.986 78.88 1.836.326Zm13.986-78.88v1.864h21.93v-3.729h-21.93v1.865Zm21.93 0-1.837-.321-10.853 62.209 1.837.321 1.837.32 10.853-62.209-1.837-.32Zm71.295 66.013 1.842-.289-.246-1.576h-1.596v1.865Zm-27.972 0v-1.865h-1.148l-.517 1.025 1.665.84Zm-6.489 12.867v1.864h1.148l.517-1.025-1.665-.839Zm-23.049 0-1.64-.887-1.487 2.751h3.127v-1.864Zm42.629-78.88v-1.865h-1.112l-.528.978 1.64.887Zm25.286 0 1.833-.343-.285-1.522h-1.548v1.865Zm14.769 78.88v1.864h2.247l-.414-2.208-1.833.344Zm-23.16 0-1.842.288.246 1.576h1.596v-1.864Zm-4.587-29.538v1.864h2.171l-.328-2.146-1.843.282Zm-3.916-25.622 1.843-.282-.879-5.749-2.628 5.188 1.664.843Zm-12.979 25.622-1.664-.843-1.371 2.707h3.035v-1.864Zm19.468 16.671v-1.865h-27.972v3.729h27.972v-1.864Zm-27.972 0-1.665-.84-6.489 12.867 1.665.84 1.665.839 6.489-12.867-1.665-.839Zm-6.489 12.867v-1.865h-23.049v3.729h23.049v-1.864Zm-23.049 0 1.641.886 42.629-78.88-1.641-.886-1.64-.887-42.629 78.88 1.64.887Zm42.629-78.88v1.864h25.286v-3.729h-25.286v1.865Zm25.286 0-1.832.343 14.769 78.88 1.832-.343 1.833-.344-14.769-78.879-1.833.343Zm14.769 78.88v-1.865h-23.16v3.729h23.16v-1.864Zm-23.16 0 1.842-.289-2.014-12.867-1.842.289-1.842.288 2.014 12.867 1.842-.288Zm-4.587-29.538 1.843-.282-3.916-25.622-1.843.282-1.844.281 3.916 25.622 1.844-.281Zm-3.916-25.622-1.664-.843-12.979 25.622 1.664.843 1.663.842 12.979-25.622-1.663-.842Zm-12.979 25.622v1.864h16.895v-3.729H426.27v1.865Zm130.018-50.237-1.165 1.456.014.011.015.012 1.136-1.479Zm5.818 19.244-1.832-.349-.002.013-.003.013 1.837.323Zm-9.622 16.112 1.125 1.486-1.125-1.486Zm-18.909 6.153-.038-1.864-1.43.029-.343 1.389 1.811.446Zm-2.014 8.168v1.865h1.461l.35-1.418-1.811-.447Zm-19.356 0-1.846-.269-.311 2.134h2.157v-1.865Zm3.244-22.265v-1.865h-1.612l-.233 1.596 1.845.269Zm20.811-2.126-.8-1.684-.008.004-.008.004.816 1.676Zm-5.594-10.405-1.28-1.356-.02.018-.019.019 1.319 1.319Zm-2.462 4.923v1.864h1.552l.282-1.525-1.834-.339Zm-20.699 0-1.845-.268-.31 2.132h2.155v-1.864Zm5.035-12.532 1.514 1.09-1.514-1.09Zm10.853-8.839.801 1.684.011-.005.011-.005-.823-1.674Zm-14.992 79.663-1.236 1.397.013.012.013.011 1.21-1.42Zm-1.007-13.314-1.569-1.009-.005.008-.004.007 1.578.994Zm5.482-4.923.855 1.657.021-.011.021-.011-.897-1.635Zm15.664.783-1.265 1.37.028.025.028.025 1.209-1.42Zm-1.343 16.224 1.244 1.389.002-.002-1.246-1.387Zm12.196-81.789v1.864c6.89 0 12.06 1.579 15.73 4.515l1.165-1.456 1.165-1.457c-4.536-3.628-10.628-5.331-18.06-5.331v1.865Zm16.895 4.923-1.136 1.479c3.634 2.79 5.537 6.892 5.537 12.618h3.729c0-6.656-2.274-11.952-6.994-15.576l-1.136 1.479Zm6.266 14.097h-1.865c0 1.767-.142 3.364-.415 4.798l1.832.349 1.832.349c.323-1.699.48-3.533.48-5.496h-1.864Zm-.448 5.147-1.837-.323c-1.116 6.351-4.086 11.295-8.911 14.948l1.126 1.487 1.125 1.486c5.618-4.253 9.063-10.05 10.334-17.275l-1.837-.323Zm-9.622 16.112-1.126-1.487c-4.868 3.686-10.777 5.634-17.821 5.776l.038 1.864.038 1.865c7.725-.156 14.422-2.311 19.996-6.532l-1.125-1.486Zm-18.909 6.153-1.811-.446-2.014 8.168 1.811.446 1.811.447 2.013-8.168-1.81-.447Zm-2.014 8.168v-1.865h-19.356v3.73h19.356v-1.865Zm-19.356 0 1.845.269 3.245-22.265-1.846-.269-1.845-.269-3.245 22.265 1.846.269Zm3.244-22.265v1.865h8.056v-3.73h-8.056v1.865Zm8.056 0v1.865c5.7 0 10.286-.714 13.572-2.315l-.817-1.676-.816-1.676c-2.533 1.233-6.45 1.937-11.939 1.937v1.865Zm12.755-2.126.8 1.684c1.786-.848 3.206-2.075 4.164-3.704.951-1.616 1.376-3.508 1.376-5.588h-3.729c0 1.575-.32 2.778-.861 3.697-.535.908-1.352 1.658-2.55 2.227l.8 1.684Zm4.476-7.608h1.864c0-1.886-.581-3.591-1.947-4.843l-1.26 1.374-1.26 1.375c.424.389.738.996.738 2.094h1.865Zm-1.343-3.469 1.26-1.374c-1.313-1.204-2.994-1.721-4.84-1.721v3.729c1.137 0 1.843.304 2.32.741l1.26-1.375Zm-3.58-1.231v-1.864c-2.498 0-4.693.772-6.427 2.411l1.28 1.356 1.28 1.355c.951-.897 2.187-1.393 3.867-1.393v-1.865Zm-5.147 1.903-1.319-1.319c-1.571 1.571-2.545 3.572-2.976 5.902l1.833.34 1.834.339c.314-1.697.982-2.979 1.946-3.944l-1.318-1.318Zm-2.462 4.923v-1.865h-20.699v3.729h20.699v-1.864Zm-20.699 0 1.846.267c.629-4.333 2.196-8.227 4.703-11.709l-1.514-1.09-1.513-1.089c-2.863 3.977-4.653 8.437-5.367 13.353l1.845.268Zm5.035-12.532 1.514 1.09c2.484-3.451 5.846-6.203 10.14-8.245l-.801-1.684-.8-1.684c-4.806 2.285-8.68 5.425-11.566 9.434l1.513 1.089Zm10.853-8.839.823 1.674c4.247-2.089 9.288-3.166 15.177-3.166v-3.729c-6.344 0-11.969 1.161-16.823 3.548l.823 1.673Zm-6.825 82.237v-1.865c-3.122 0-5.371-.776-6.958-2.128l-1.209 1.419-1.21 1.42c2.441 2.079 5.637 3.018 9.377 3.018v-1.864Zm-8.167-2.574 1.235-1.396c-1.51-1.336-2.28-3.051-2.28-5.317h-3.729c0 3.254 1.17 6.015 3.538 8.11l1.236-1.397Zm-2.91-6.713h1.865c0-2.036.535-3.892 1.616-5.608l-1.578-.993-1.578-.994a14.017 14.017 0 0 0-2.189 7.595h1.864Zm1.903-6.601 1.568 1.008c1.157-1.8 2.733-3.223 4.769-4.274l-.855-1.657-.855-1.657c-2.589 1.336-4.668 3.194-6.196 5.571l1.569 1.009Zm5.482-4.923.897 1.635c2.017-1.106 4.278-1.672 6.823-1.672v-3.73c-3.124 0-6.009.702-8.617 2.132l.897 1.635Zm7.72-1.902v1.865c3.02 0 5.171.798 6.679 2.19l1.265-1.37 1.265-1.37c-2.37-2.188-5.516-3.18-9.209-3.18v1.865Zm7.944 2.685-1.209 1.42c1.578 1.344 2.365 3.053 2.365 5.293h3.73c0-3.279-1.227-6.045-3.677-8.133l-1.209 1.42Zm3.021 6.713h-1.865c0 3.172-1.208 5.846-3.744 8.123l1.245 1.388 1.246 1.387c3.282-2.945 4.983-6.611 4.983-10.898h-1.865Zm-4.364 9.511-1.243-1.39c-2.452 2.193-5.535 3.329-9.386 3.329v3.729c4.653 0 8.655-1.4 11.873-4.279l-1.244-1.389Z" mask="url(#e)"/></g><defs><clipPath id="b"><path fill="#fff" d="M0 180.656h580v69.727H0z"/></clipPath><clipPath id="d"><path fill="#fff" d="M12.678 234.536h548.306v63.388H12.678z"/></clipPath><linearGradient id="a" x1="303.533" x2="303.533" y1="0" y2="180" gradientUnits="userSpaceOnUse"><stop offset=".464" stop-color="#F8383B"/><stop offset="1" stop-color="#3D1010"/></linearGradient></defs></svg>