<svg width="502" height="312" viewBox="0 0 502 312" fill="none" xmlns="http://www.w3.org/2000/svg">
<path d="M180.237 25.7339L172.1 72H159.172L167.375 25.7339H180.237ZM222.41 25.7339L220.572 35.9715H208.3L201.934 72H189.006L195.372 35.9715H183.165L185.003 25.7339H222.41ZM230.647 25.7339H243.641L232.812 44.2404H224.281L230.647 25.7339ZM260.815 72.4594C255.477 72.4594 251.168 71.3656 247.887 69.1781C244.649 66.9468 243.03 63.7093 243.03 59.4655C243.03 59.1155 243.074 58.503 243.162 57.628H256.746C256.615 59.1155 256.921 60.2749 257.665 61.1061C258.409 61.9374 259.546 62.353 261.078 62.353C262.346 62.353 263.353 62.0687 264.096 61.4999C264.884 60.9311 265.278 60.1218 265.278 59.0717C265.278 57.8467 264.709 56.8405 263.571 56.053C262.478 55.2655 260.684 54.3467 258.19 53.2967C255.696 52.2467 253.64 51.2623 252.021 50.3435C250.402 49.381 249.002 48.0904 247.821 46.4716C246.64 44.8091 246.049 42.7528 246.049 40.3028C246.049 37.109 246.837 34.3746 248.412 32.0996C249.987 29.7808 252.174 28.0308 254.974 26.8496C257.818 25.6245 261.056 25.012 264.687 25.012C267.968 25.012 270.878 25.537 273.415 26.587C275.953 27.5933 277.921 29.0589 279.321 30.984C280.765 32.909 281.487 35.184 281.487 37.809C281.487 38.509 281.465 39.034 281.421 39.3841H267.574C267.618 39.1653 267.64 38.859 267.64 38.4653C267.64 37.4153 267.312 36.6059 266.656 36.0371C265.999 35.4246 265.103 35.1184 263.965 35.1184C262.784 35.1184 261.821 35.4246 261.078 36.0371C260.378 36.6059 260.027 37.4153 260.027 38.4653C260.027 39.6028 260.574 40.5872 261.668 41.4184C262.806 42.206 264.556 43.1466 266.918 44.2404C269.456 45.4216 271.534 46.5372 273.153 47.5873C274.815 48.5935 276.237 49.9498 277.418 51.656C278.6 53.3623 279.19 55.4623 279.19 57.9561C279.19 60.7124 278.446 63.2062 276.959 65.4374C275.471 67.625 273.35 69.3531 270.593 70.6219C267.837 71.8469 264.578 72.4594 260.815 72.4594ZM326.966 64.4531H310.56L306.753 72H293.235L318.238 25.7339H333.069L341.732 72H328.147L326.966 64.4531ZM325.457 54.6748L323.16 39.6466L315.547 54.6748H325.457Z" fill="#25DD6F"/>
<path d="M110.887 91.6867L96.8247 171H74.887L82.6496 127.125L59.8119 171H41.3617L34.1616 126.9L26.399 171H4.23632L18.299 91.6867H44.9617L55.8743 143.1L84.3371 91.6867H110.887ZM161.915 158.062H133.789L127.264 171H104.089L146.952 91.6867H172.377L187.227 171H163.94L161.915 158.062ZM159.327 141.3L155.389 115.537L142.339 141.3H159.327ZM268.102 91.6867L264.952 109.237H243.915L233.002 171H210.839L221.752 109.237H200.827L203.977 91.6867H268.102ZM266.585 131.175C267.935 123.375 270.785 116.437 275.136 110.362C279.486 104.212 284.961 99.4493 291.561 96.0743C298.161 92.6242 305.361 90.8992 313.161 90.8992C319.686 90.8992 325.386 92.0992 330.261 94.4992C335.136 96.8993 338.924 100.312 341.624 104.737C344.324 109.162 345.786 114.374 346.011 120.374H322.273C321.373 117.449 319.798 115.199 317.548 113.624C315.298 112.049 312.523 111.262 309.223 111.262C304.123 111.262 299.736 113.062 296.061 116.662C292.386 120.262 290.023 125.1 288.973 131.175C288.673 132.75 288.523 134.437 288.523 136.237C288.523 140.887 289.723 144.562 292.123 147.262C294.598 149.887 297.973 151.2 302.248 151.2C305.548 151.2 308.586 150.412 311.361 148.837C314.211 147.262 316.573 145.012 318.448 142.087H342.299C338.699 151.162 333.036 158.362 325.311 163.687C317.586 168.937 308.773 171.563 298.873 171.563C292.048 171.563 286.123 170.25 281.098 167.625C276.148 165 272.36 161.287 269.735 156.487C267.11 151.687 265.798 146.137 265.798 139.837C265.798 136.912 266.06 134.025 266.585 131.175ZM432.503 91.6867L418.553 171H396.391L402.016 139.162H375.24L369.615 171H347.453L361.515 91.6867H383.565L378.278 121.612H405.166L410.453 91.6867H432.503ZM497.904 87.6367L485.979 141.3H467.079L473.942 87.6367H497.904ZM471.129 171.9C467.679 171.9 464.942 171.038 462.917 169.312C460.967 167.587 459.992 165.337 459.992 162.562C459.992 160.162 460.629 157.95 461.904 155.925C463.254 153.825 465.092 152.175 467.417 150.975C469.742 149.7 472.329 149.062 475.179 149.062C478.554 149.062 481.217 149.962 483.167 151.762C485.192 153.487 486.204 155.737 486.204 158.512C486.204 162.262 484.742 165.45 481.817 168.075C478.967 170.625 475.404 171.9 471.129 171.9Z" fill="url(#paint0_linear_215_122)"/>
<g clip-path="url(#clip0_215_122)">
<mask id="path-2-outside-1_215_122" maskUnits="userSpaceOnUse" x="0.875" y="140.876" width="499" height="89" fill="black">
<rect fill="white" x="0.875" y="140.876" width="499" height="89"/>
<path d="M109.953 147.563L95.8902 226.876H73.9525L81.7151 183.001L58.8773 226.876H40.4272L33.2271 182.776L25.4645 226.876H3.30179L17.3644 147.563H44.0272L54.9398 198.976L83.4026 147.563H109.953ZM160.98 213.939H132.855L126.33 226.876H103.154L146.017 147.563H171.443L186.293 226.876H163.005L160.98 213.939ZM158.392 197.176L154.455 171.413L141.405 197.176H158.392ZM267.168 147.563L264.018 165.113H242.98L232.068 226.876H209.905L220.817 165.113H199.892L203.042 147.563H267.168ZM265.651 187.051C267.001 179.251 269.851 172.313 274.201 166.238C278.551 160.088 284.026 155.326 290.626 151.951C297.226 148.501 304.426 146.776 312.226 146.776C318.751 146.776 324.451 147.976 329.327 150.376C334.202 152.776 337.989 156.188 340.689 160.613C343.389 165.038 344.852 170.251 345.077 176.251H321.339C320.439 173.326 318.864 171.076 316.614 169.501C314.364 167.926 311.589 167.138 308.289 167.138C303.189 167.138 298.801 168.938 295.126 172.538C291.451 176.138 289.089 180.976 288.039 187.051C287.739 188.626 287.589 190.314 287.589 192.114C287.589 196.764 288.789 200.439 291.189 203.139C293.664 205.764 297.039 207.076 301.314 207.076C304.614 207.076 307.651 206.289 310.426 204.714C313.276 203.139 315.639 200.889 317.514 197.964H341.364C337.764 207.039 332.102 214.239 324.376 219.564C316.651 224.814 307.839 227.439 297.939 227.439C291.114 227.439 285.189 226.126 280.164 223.501C275.213 220.876 271.426 217.164 268.801 212.364C266.176 207.564 264.863 202.014 264.863 195.714C264.863 192.789 265.126 189.901 265.651 187.051ZM431.569 147.563L417.619 226.876H395.456L401.081 195.039H374.306L368.681 226.876H346.518L360.581 147.563H382.631L377.343 177.488H404.231L409.519 147.563H431.569ZM496.97 143.513L485.045 197.176H466.145L473.007 143.513H496.97ZM470.195 227.776C466.745 227.776 464.007 226.914 461.982 225.189C460.032 223.464 459.057 221.214 459.057 218.439C459.057 216.039 459.695 213.826 460.97 211.801C462.32 209.701 464.157 208.051 466.482 206.851C468.807 205.576 471.395 204.939 474.245 204.939C477.62 204.939 480.282 205.839 482.232 207.639C484.257 209.364 485.27 211.614 485.27 214.389C485.27 218.139 483.807 221.326 480.882 223.951C478.032 226.501 474.47 227.776 470.195 227.776Z"/>
</mask>
<path d="M109.953 147.563L111.799 147.891L112.19 145.688H109.953V147.563ZM95.8902 226.876V228.751H97.462L97.7364 227.204L95.8902 226.876ZM73.9525 226.876L72.1062 226.55L71.7166 228.751H73.9525V226.876ZM81.7151 183.001L83.5614 183.328L80.0519 182.135L81.7151 183.001ZM58.8773 226.876V228.751H60.0152L60.5405 227.742L58.8773 226.876ZM40.4272 226.876L38.5766 227.179L38.8334 228.751H40.4272V226.876ZM33.2271 182.776L35.0776 182.474L31.3805 182.451L33.2271 182.776ZM25.4645 226.876V228.751H27.0383L27.3111 227.202L25.4645 226.876ZM3.30179 226.876L1.45557 226.549L1.06508 228.751H3.30179V226.876ZM17.3644 147.563V145.688H15.7926L15.5182 147.236L17.3644 147.563ZM44.0272 147.563L45.8614 147.174L45.546 145.688H44.0272V147.563ZM54.9398 198.976L53.1056 199.365L54.1482 204.277L56.5802 199.884L54.9398 198.976ZM83.4026 147.563V145.688H82.2974L81.7622 146.655L83.4026 147.563ZM109.953 147.563L108.107 147.236L94.044 226.549L95.8902 226.876L97.7364 227.204L111.799 147.891L109.953 147.563ZM95.8902 226.876V225.001H73.9525V226.876V228.751H95.8902V226.876ZM73.9525 226.876L75.7988 227.203L83.5614 183.328L81.7151 183.001L79.8687 182.674L72.1062 226.55L73.9525 226.876ZM81.7151 183.001L80.0519 182.135L57.2141 226.011L58.8773 226.876L60.5405 227.742L83.3783 183.867L81.7151 183.001ZM58.8773 226.876V225.001H40.4272V226.876V228.751H58.8773V226.876ZM40.4272 226.876L42.2777 226.574L35.0776 182.474L33.2271 182.776L31.3766 183.078L38.5766 227.179L40.4272 226.876ZM33.2271 182.776L31.3805 182.451L23.6179 226.551L25.4645 226.876L27.3111 227.202L35.0737 183.101L33.2271 182.776ZM25.4645 226.876V225.001H3.30179V226.876V228.751H25.4645V226.876ZM3.30179 226.876L5.14802 227.204L19.2107 147.891L17.3644 147.563L15.5182 147.236L1.45557 226.549L3.30179 226.876ZM17.3644 147.563V149.438H44.0272V147.563V145.688H17.3644V147.563ZM44.0272 147.563L42.193 147.952L53.1056 199.365L54.9398 198.976L56.774 198.587L45.8614 147.174L44.0272 147.563ZM54.9398 198.976L56.5802 199.884L85.043 148.471L83.4026 147.563L81.7622 146.655L53.2994 198.068L54.9398 198.976ZM83.4026 147.563V149.438H109.953V147.563V145.688H83.4026V147.563ZM160.98 213.939L162.832 213.649L162.584 212.064H160.98V213.939ZM132.855 213.939V212.064H131.7L131.181 213.094L132.855 213.939ZM126.33 226.876V228.751H127.484L128.004 227.721L126.33 226.876ZM103.154 226.876L101.505 225.985L100.01 228.751H103.154V226.876ZM146.017 147.563V145.688H144.899L144.368 146.672L146.017 147.563ZM171.443 147.563L173.286 147.218L172.999 145.688H171.443V147.563ZM186.293 226.876V228.751H188.551L188.136 226.531L186.293 226.876ZM163.005 226.876L161.153 227.166L161.401 228.751H163.005V226.876ZM158.392 197.176V199.051H160.576L160.246 196.893L158.392 197.176ZM154.455 171.413L156.308 171.13L155.425 165.349L152.782 170.566L154.455 171.413ZM141.405 197.176L139.732 196.329L138.353 199.051H141.405V197.176ZM160.98 213.939V212.064H132.855V213.939V215.814H160.98V213.939ZM132.855 213.939L131.181 213.094L124.656 226.032L126.33 226.876L128.004 227.721L134.529 214.783L132.855 213.939ZM126.33 226.876V225.001H103.154V226.876V228.751H126.33V226.876ZM103.154 226.876L104.804 227.768L147.667 148.455L146.017 147.563L144.368 146.672L101.505 225.985L103.154 226.876ZM146.017 147.563V149.438H171.443V147.563V145.688H146.017V147.563ZM171.443 147.563L169.6 147.908L184.45 227.222L186.293 226.876L188.136 226.531L173.286 147.218L171.443 147.563ZM186.293 226.876V225.001H163.005V226.876V228.751H186.293V226.876ZM163.005 226.876L164.857 226.587L162.832 213.649L160.98 213.939L159.128 214.229L161.153 227.166L163.005 226.876ZM158.392 197.176L160.246 196.893L156.308 171.13L154.455 171.413L152.601 171.697L156.539 197.459L158.392 197.176ZM154.455 171.413L152.782 170.566L139.732 196.329L141.405 197.176L143.077 198.023L156.128 172.261L154.455 171.413ZM141.405 197.176V199.051H158.392V197.176V195.301H141.405V197.176ZM267.168 147.563L269.013 147.894L269.409 145.688H267.168V147.563ZM264.018 165.113V166.988H265.586L265.863 165.445L264.018 165.113ZM242.98 165.113V163.238H241.407L241.134 164.787L242.98 165.113ZM232.068 226.876V228.751H233.64L233.914 227.203L232.068 226.876ZM209.905 226.876L208.058 226.55L207.669 228.751H209.905V226.876ZM220.817 165.113L222.664 165.44L223.053 163.238H220.817V165.113ZM199.892 165.113L198.047 164.782L197.651 166.988H199.892V165.113ZM203.042 147.563V145.688H201.474L201.197 147.232L203.042 147.563ZM267.168 147.563L265.322 147.232L262.172 164.782L264.018 165.113L265.863 165.445L269.013 147.894L267.168 147.563ZM264.018 165.113V163.238H242.98V165.113V166.988H264.018V165.113ZM242.98 165.113L241.134 164.787L230.221 226.55L232.068 226.876L233.914 227.203L244.827 165.44L242.98 165.113ZM232.068 226.876V225.001H209.905V226.876V228.751H232.068V226.876ZM209.905 226.876L211.751 227.203L222.664 165.44L220.817 165.113L218.971 164.787L208.058 226.55L209.905 226.876ZM220.817 165.113V163.238H199.892V165.113V166.988H220.817V165.113ZM199.892 165.113L201.738 165.445L204.888 147.894L203.042 147.563L201.197 147.232L198.047 164.782L199.892 165.113ZM203.042 147.563V149.438H267.168V147.563V145.688H203.042V147.563ZM265.651 187.051L267.495 187.391L267.497 187.381L267.498 187.371L265.651 187.051ZM274.201 166.238L275.725 167.33L275.732 167.321L274.201 166.238ZM290.626 151.951L291.48 153.62L291.487 153.616L291.495 153.612L290.626 151.951ZM340.689 160.613L342.29 159.637L342.29 159.637L340.689 160.613ZM345.077 176.251V178.126H347.023L346.95 176.181L345.077 176.251ZM321.339 176.251L319.547 176.802L319.954 178.126H321.339V176.251ZM316.614 169.501L317.689 167.965L317.689 167.965L316.614 169.501ZM295.126 172.538L296.438 173.878L296.438 173.878L295.126 172.538ZM288.039 187.051L289.881 187.402L289.884 187.386L289.886 187.37L288.039 187.051ZM291.189 203.139L289.787 204.384L289.806 204.405L289.824 204.425L291.189 203.139ZM310.426 204.714L309.519 203.073L309.51 203.078L309.501 203.083L310.426 204.714ZM317.514 197.964V196.089H316.489L315.935 196.952L317.514 197.964ZM341.364 197.964L343.107 198.655L344.125 196.089H341.364V197.964ZM324.376 219.564L325.43 221.115L325.441 221.108L324.376 219.564ZM280.164 223.501L279.285 225.158L279.295 225.163L280.164 223.501ZM268.801 212.364L270.446 211.464L270.446 211.464L268.801 212.364ZM265.651 187.051L267.498 187.371C268.803 179.832 271.55 173.162 275.725 167.33L274.201 166.238L272.676 165.147C268.152 171.465 265.199 178.67 263.803 186.731L265.651 187.051ZM274.201 166.238L275.732 167.321C279.91 161.414 285.154 156.855 291.48 153.62L290.626 151.951L289.772 150.281C282.898 153.797 277.192 158.762 272.67 165.156L274.201 166.238ZM290.626 151.951L291.495 153.612C297.814 150.309 304.714 148.651 312.226 148.651V146.776V144.901C304.139 144.901 296.638 146.692 289.758 150.289L290.626 151.951ZM312.226 146.776V148.651C318.521 148.651 323.928 149.808 328.498 152.058L329.327 150.376L330.155 148.693C324.975 146.144 318.982 144.901 312.226 144.901V146.776ZM329.327 150.376L328.498 152.058C333.07 154.309 336.583 157.484 339.089 161.59L340.689 160.613L342.29 159.637C339.395 154.893 335.333 151.243 330.155 148.693L329.327 150.376ZM340.689 160.613L339.089 161.59C341.597 165.701 342.988 170.59 343.203 176.321L345.077 176.251L346.95 176.181C346.715 169.911 345.182 164.376 342.29 159.637L340.689 160.613ZM345.077 176.251V174.376H321.339V176.251V178.126H345.077V176.251ZM321.339 176.251L323.131 175.7C322.123 172.424 320.32 169.807 317.689 167.965L316.614 169.501L315.539 171.037C317.408 172.345 318.755 174.228 319.547 176.802L321.339 176.251ZM316.614 169.501L317.689 167.965C315.065 166.128 311.894 165.263 308.289 165.263V167.138V169.013C311.283 169.013 313.663 169.724 315.539 171.037L316.614 169.501ZM308.289 167.138V165.263C302.693 165.263 297.836 167.259 293.814 171.199L295.126 172.538L296.438 173.878C299.766 170.618 303.684 169.013 308.289 169.013V167.138ZM295.126 172.538L293.814 171.199C289.806 175.126 287.294 180.348 286.191 186.732L288.039 187.051L289.886 187.37C290.883 181.604 293.097 177.151 296.438 173.878L295.126 172.538ZM288.039 187.051L286.197 186.7C285.872 188.404 285.714 190.21 285.714 192.114H287.589H289.464C289.464 190.417 289.605 188.848 289.881 187.402L288.039 187.051ZM287.589 192.114H285.714C285.714 197.087 287.003 201.252 289.787 204.384L291.189 203.139L292.59 201.893C290.575 199.626 289.464 196.44 289.464 192.114H287.589ZM291.189 203.139L289.824 204.425C292.719 207.495 296.626 208.951 301.314 208.951V207.076V205.201C297.452 205.201 294.608 204.032 292.553 201.852L291.189 203.139ZM301.314 207.076V208.951C304.927 208.951 308.285 208.085 311.352 206.344L310.426 204.714L309.501 203.083C307.018 204.492 304.301 205.201 301.314 205.201V207.076ZM310.426 204.714L311.333 206.355C314.474 204.619 317.061 202.145 319.092 198.976L317.514 197.964L315.935 196.952C314.217 199.633 312.079 201.658 309.519 203.073L310.426 204.714ZM317.514 197.964V199.839H341.364V197.964V196.089H317.514V197.964ZM341.364 197.964L339.621 197.272C336.152 206.017 330.719 212.915 323.312 218.02L324.376 219.564L325.441 221.108C333.484 215.563 339.376 208.06 343.107 198.655L341.364 197.964ZM324.376 219.564L323.323 218.013C315.927 223.039 307.487 225.564 297.939 225.564V227.439V229.314C308.191 229.314 317.375 226.589 325.43 221.115L324.376 219.564ZM297.939 227.439V225.564C291.355 225.564 285.739 224.299 281.032 221.84L280.164 223.501L279.295 225.163C284.638 227.954 290.872 229.314 297.939 229.314V227.439ZM280.164 223.501L281.042 221.845C276.408 219.387 272.891 215.934 270.446 211.464L268.801 212.364L267.156 213.263C269.961 218.394 274.019 222.365 279.285 225.158L280.164 223.501ZM268.801 212.364L270.446 211.464C267.993 206.979 266.738 201.747 266.738 195.714H264.863H262.988C262.988 202.28 264.358 208.148 267.156 213.263L268.801 212.364ZM264.863 195.714H266.738C266.738 192.901 266.991 190.128 267.495 187.391L265.651 187.051L263.807 186.711C263.261 189.675 262.988 192.676 262.988 195.714H264.863ZM431.569 147.563L433.416 147.888L433.803 145.688H431.569V147.563ZM417.619 226.876V228.751H419.193L419.465 227.201L417.619 226.876ZM395.456 226.876L393.61 226.55L393.221 228.751H395.456V226.876ZM401.081 195.039L402.928 195.365L403.316 193.164H401.081V195.039ZM374.306 195.039V193.164H372.733L372.459 194.712L374.306 195.039ZM368.681 226.876V228.751H370.254L370.527 227.203L368.681 226.876ZM346.518 226.876L344.672 226.549L344.281 228.751H346.518V226.876ZM360.581 147.563V145.688H359.009L358.734 147.236L360.581 147.563ZM382.631 147.563L384.477 147.889L384.866 145.688H382.631V147.563ZM377.343 177.488L375.497 177.162L375.108 179.363H377.343V177.488ZM404.231 177.488V179.363H405.804L406.078 177.815L404.231 177.488ZM409.519 147.563V145.688H407.946L407.672 147.237L409.519 147.563ZM431.569 147.563L429.722 147.238L415.772 226.552L417.619 226.876L419.465 227.201L433.416 147.888L431.569 147.563ZM417.619 226.876V225.001H395.456V226.876V228.751H417.619V226.876ZM395.456 226.876L397.302 227.203L402.928 195.365L401.081 195.039L399.235 194.712L393.61 226.55L395.456 226.876ZM401.081 195.039V193.164H374.306V195.039V196.914H401.081V195.039ZM374.306 195.039L372.459 194.712L366.834 226.55L368.681 226.876L370.527 227.203L376.152 195.365L374.306 195.039ZM368.681 226.876V225.001H346.518V226.876V228.751H368.681V226.876ZM346.518 226.876L348.364 227.204L362.427 147.891L360.581 147.563L358.734 147.236L344.672 226.549L346.518 226.876ZM360.581 147.563V149.438H382.631V147.563V145.688H360.581V147.563ZM382.631 147.563L380.785 147.237L375.497 177.162L377.343 177.488L379.19 177.815L384.477 147.889L382.631 147.563ZM377.343 177.488V179.363H404.231V177.488V175.613H377.343V177.488ZM404.231 177.488L406.078 177.815L411.365 147.889L409.519 147.563L407.672 147.237L402.385 177.162L404.231 177.488ZM409.519 147.563V149.438H431.569V147.563V145.688H409.519V147.563ZM496.97 143.513L498.8 143.92L499.307 141.638H496.97V143.513ZM485.045 197.176V199.051H486.549L486.875 197.583L485.045 197.176ZM466.145 197.176L464.285 196.938L464.014 199.051H466.145V197.176ZM473.007 143.513V141.638H471.357L471.147 143.275L473.007 143.513ZM461.982 225.189L460.74 226.593L460.753 226.605L460.766 226.616L461.982 225.189ZM460.97 211.801L459.392 210.787L459.388 210.795L459.383 210.802L460.97 211.801ZM466.482 206.851L467.342 208.517L467.363 208.507L467.384 208.495L466.482 206.851ZM482.232 207.639L480.96 209.017L480.988 209.042L481.016 209.066L482.232 207.639ZM480.882 223.951L482.132 225.349L482.135 225.347L480.882 223.951ZM496.97 143.513L495.14 143.106L483.214 196.769L485.045 197.176L486.875 197.583L498.8 143.92L496.97 143.513ZM485.045 197.176V195.301H466.145V197.176V199.051H485.045V197.176ZM466.145 197.176L468.004 197.414L474.867 143.751L473.007 143.513L471.147 143.275L464.285 196.938L466.145 197.176ZM473.007 143.513V145.388H496.97V143.513V141.638H473.007V143.513ZM470.195 227.776V225.901C467.055 225.901 464.794 225.121 463.198 223.762L461.982 225.189L460.766 226.616C463.221 228.707 466.434 229.651 470.195 229.651V227.776ZM461.982 225.189L463.224 223.785C461.706 222.441 460.932 220.717 460.932 218.439H459.057H457.182C457.182 221.711 458.358 224.487 460.74 226.593L461.982 225.189ZM459.057 218.439H460.932C460.932 216.391 461.47 214.525 462.556 212.8L460.97 211.801L459.383 210.802C457.919 213.127 457.182 215.686 457.182 218.439H459.057ZM460.97 211.801L462.547 212.815C463.71 211.005 465.295 209.574 467.342 208.517L466.482 206.851L465.622 205.185C463.02 206.528 460.929 208.397 459.392 210.787L460.97 211.801ZM466.482 206.851L467.384 208.495C469.412 207.383 471.686 206.814 474.245 206.814V204.939V203.064C471.104 203.064 468.202 203.769 465.58 205.207L466.482 206.851ZM474.245 204.939V206.814C477.281 206.814 479.443 207.616 480.96 209.017L482.232 207.639L483.504 206.261C481.121 204.061 477.958 203.064 474.245 203.064V204.939ZM482.232 207.639L481.016 209.066C482.603 210.418 483.395 212.136 483.395 214.389H485.27H487.145C487.145 211.092 485.912 208.31 483.448 206.211L482.232 207.639ZM485.27 214.389H483.395C483.395 217.578 482.18 220.267 479.63 222.556L480.882 223.951L482.135 225.347C485.434 222.386 487.145 218.7 487.145 214.389H485.27ZM480.882 223.951L479.632 222.554C477.167 224.76 474.067 225.901 470.195 225.901V227.776V229.651C474.872 229.651 478.897 228.243 482.132 225.349L480.882 223.951Z" fill="#25DD6F" mask="url(#path-2-outside-1_215_122)"/>
</g>
<g clip-path="url(#clip1_215_122)">
<mask id="path-4-outside-2_215_122" maskUnits="userSpaceOnUse" x="-1" y="163.377" width="499" height="89" fill="black">
<rect fill="white" x="-1" y="163.377" width="499" height="89"/>
<path d="M108.078 170.064L94.0152 249.377H72.0775L79.8401 205.502L57.0023 249.377H38.5522L31.3521 205.277L23.5895 249.377H1.42679L15.4894 170.064H42.1522L53.0648 221.477L81.5276 170.064H108.078ZM159.105 236.439H130.98L124.455 249.377H101.279L144.142 170.064H169.568L184.418 249.377H161.13L159.105 236.439ZM156.517 219.677L152.58 193.914L139.53 219.677H156.517ZM265.293 170.064L262.143 187.614H241.105L230.193 249.377H208.03L218.942 187.614H198.017L201.167 170.064H265.293ZM263.776 209.552C265.126 201.751 267.976 194.814 272.326 188.739C276.676 182.589 282.151 177.826 288.751 174.451C295.351 171.001 302.551 169.276 310.351 169.276C316.876 169.276 322.576 170.476 327.452 172.876C332.327 175.276 336.114 178.689 338.814 183.114C341.514 187.539 342.977 192.751 343.202 198.751H319.464C318.564 195.826 316.989 193.576 314.739 192.001C312.489 190.426 309.714 189.639 306.414 189.639C301.314 189.639 296.926 191.439 293.251 195.039C289.576 198.639 287.214 203.476 286.164 209.552C285.864 211.127 285.714 212.814 285.714 214.614C285.714 219.264 286.914 222.939 289.314 225.639C291.789 228.264 295.164 229.577 299.439 229.577C302.739 229.577 305.776 228.789 308.551 227.214C311.401 225.639 313.764 223.389 315.639 220.464H339.489C335.889 229.539 330.227 236.739 322.501 242.064C314.776 247.314 305.964 249.939 296.064 249.939C289.239 249.939 283.314 248.627 278.289 246.002C273.338 243.377 269.551 239.664 266.926 234.864C264.301 230.064 262.988 224.514 262.988 218.214C262.988 215.289 263.251 212.402 263.776 209.552ZM429.694 170.064L415.744 249.377H393.581L399.206 217.539H372.431L366.806 249.377H344.643L358.706 170.064H380.756L375.468 199.989H402.356L407.644 170.064H429.694ZM495.095 166.014L483.17 219.677H464.27L471.132 166.014H495.095ZM468.32 250.277C464.87 250.277 462.132 249.414 460.107 247.689C458.157 245.964 457.182 243.714 457.182 240.939C457.182 238.539 457.82 236.327 459.095 234.302C460.445 232.202 462.282 230.552 464.607 229.352C466.932 228.077 469.52 227.439 472.37 227.439C475.745 227.439 478.407 228.339 480.357 230.139C482.382 231.864 483.395 234.114 483.395 236.889C483.395 240.639 481.932 243.827 479.007 246.452C476.157 249.002 472.595 250.277 468.32 250.277Z"/>
</mask>
<path d="M108.078 170.064L109.924 170.391L110.315 168.189H108.078V170.064ZM94.0152 249.377V251.252H95.587L95.8614 249.704L94.0152 249.377ZM72.0775 249.377L70.2312 249.05L69.8416 251.252H72.0775V249.377ZM79.8401 205.502L81.6864 205.828L78.1769 204.636L79.8401 205.502ZM57.0023 249.377V251.252H58.1402L58.6655 250.243L57.0023 249.377ZM38.5522 249.377L36.7016 249.679L36.9584 251.252H38.5522V249.377ZM31.3521 205.277L33.2026 204.974L29.5055 204.951L31.3521 205.277ZM23.5895 249.377V251.252H25.1633L25.4361 249.702L23.5895 249.377ZM1.42679 249.377L-0.419429 249.05L-0.809919 251.252H1.42679V249.377ZM15.4894 170.064V168.189H13.9176L13.6432 169.736L15.4894 170.064ZM42.1522 170.064L43.9864 169.674L43.671 168.189H42.1522V170.064ZM53.0648 221.477L51.2306 221.866L52.2732 226.778L54.7052 222.385L53.0648 221.477ZM81.5276 170.064V168.189H80.4224L79.8872 169.156L81.5276 170.064ZM108.078 170.064L106.232 169.736L92.169 249.05L94.0152 249.377L95.8614 249.704L109.924 170.391L108.078 170.064ZM94.0152 249.377V247.502H72.0775V249.377V251.252H94.0152V249.377ZM72.0775 249.377L73.9238 249.704L81.6864 205.828L79.8401 205.502L77.9937 205.175L70.2312 249.05L72.0775 249.377ZM79.8401 205.502L78.1769 204.636L55.3391 248.511L57.0023 249.377L58.6655 250.243L81.5033 206.367L79.8401 205.502ZM57.0023 249.377V247.502H38.5522V249.377V251.252H57.0023V249.377ZM38.5522 249.377L40.4027 249.075L33.2026 204.974L31.3521 205.277L29.5016 205.579L36.7016 249.679L38.5522 249.377ZM31.3521 205.277L29.5055 204.951L21.7429 249.052L23.5895 249.377L25.4361 249.702L33.1987 205.602L31.3521 205.277ZM23.5895 249.377V247.502H1.42679V249.377V251.252H23.5895V249.377ZM1.42679 249.377L3.27302 249.704L17.3357 170.391L15.4894 170.064L13.6432 169.736L-0.419429 249.05L1.42679 249.377ZM15.4894 170.064V171.939H42.1522V170.064V168.189H15.4894V170.064ZM42.1522 170.064L40.318 170.453L51.2306 221.866L53.0648 221.477L54.899 221.087L43.9864 169.674L42.1522 170.064ZM53.0648 221.477L54.7052 222.385L83.168 170.972L81.5276 170.064L79.8872 169.156L51.4244 220.569L53.0648 221.477ZM81.5276 170.064V171.939H108.078V170.064V168.189H81.5276V170.064ZM159.105 236.439L160.957 236.149L160.709 234.564H159.105V236.439ZM130.98 236.439V234.564H129.825L129.306 235.595L130.98 236.439ZM124.455 249.377V251.252H125.609L126.129 250.221L124.455 249.377ZM101.279 249.377L99.6299 248.485L98.1348 251.252H101.279V249.377ZM144.142 170.064V168.189H143.024L142.493 169.172L144.142 170.064ZM169.568 170.064L171.411 169.719L171.124 168.189H169.568V170.064ZM184.418 249.377V251.252H186.676L186.261 249.032L184.418 249.377ZM161.13 249.377L159.278 249.667L159.526 251.252H161.13V249.377ZM156.517 219.677V221.552H158.701L158.371 219.393L156.517 219.677ZM152.58 193.914L154.433 193.631L153.55 187.85L150.907 193.067L152.58 193.914ZM139.53 219.677L137.857 218.829L136.478 221.552H139.53V219.677ZM159.105 236.439V234.564H130.98V236.439V238.314H159.105V236.439ZM130.98 236.439L129.306 235.595L122.781 248.533L124.455 249.377L126.129 250.221L132.654 237.284L130.98 236.439ZM124.455 249.377V247.502H101.279V249.377V251.252H124.455V249.377ZM101.279 249.377L102.929 250.268L145.792 170.955L144.142 170.064L142.493 169.172L99.6299 248.485L101.279 249.377ZM144.142 170.064V171.939H169.568V170.064V168.189H144.142V170.064ZM169.568 170.064L167.725 170.409L182.575 249.722L184.418 249.377L186.261 249.032L171.411 169.719L169.568 170.064ZM184.418 249.377V247.502H161.13V249.377V251.252H184.418V249.377ZM161.13 249.377L162.982 249.087L160.957 236.149L159.105 236.439L157.253 236.729L159.278 249.667L161.13 249.377ZM156.517 219.677L158.371 219.393L154.433 193.631L152.58 193.914L150.726 194.197L154.664 219.96L156.517 219.677ZM152.58 193.914L150.907 193.067L137.857 218.829L139.53 219.677L141.202 220.524L154.253 194.761L152.58 193.914ZM139.53 219.677V221.552H156.517V219.677V217.802H139.53V219.677ZM265.293 170.064L267.138 170.395L267.534 168.189H265.293V170.064ZM262.143 187.614V189.489H263.711L263.988 187.945L262.143 187.614ZM241.105 187.614V185.739H239.532L239.259 187.288L241.105 187.614ZM230.193 249.377V251.252H231.765L232.039 249.703L230.193 249.377ZM208.03 249.377L206.183 249.051L205.794 251.252H208.03V249.377ZM218.942 187.614L220.789 187.94L221.178 185.739H218.942V187.614ZM198.017 187.614L196.172 187.283L195.776 189.489H198.017V187.614ZM201.167 170.064V168.189H199.599L199.322 169.732L201.167 170.064ZM265.293 170.064L263.447 169.732L260.297 187.283L262.143 187.614L263.988 187.945L267.138 170.395L265.293 170.064ZM262.143 187.614V185.739H241.105V187.614V189.489H262.143V187.614ZM241.105 187.614L239.259 187.288L228.346 249.051L230.193 249.377L232.039 249.703L242.952 187.94L241.105 187.614ZM230.193 249.377V247.502H208.03V249.377V251.252H230.193V249.377ZM208.03 249.377L209.876 249.703L220.789 187.94L218.942 187.614L217.096 187.288L206.183 249.051L208.03 249.377ZM218.942 187.614V185.739H198.017V187.614V189.489H218.942V187.614ZM198.017 187.614L199.863 187.945L203.013 170.395L201.167 170.064L199.322 169.732L196.172 187.283L198.017 187.614ZM201.167 170.064V171.939H265.293V170.064V168.189H201.167V170.064ZM263.776 209.552L265.62 209.891L265.622 209.881L265.623 209.871L263.776 209.552ZM272.326 188.739L273.85 189.83L273.857 189.822L272.326 188.739ZM288.751 174.451L289.605 176.121L289.612 176.117L289.62 176.113L288.751 174.451ZM338.814 183.114L340.415 182.137L340.415 182.137L338.814 183.114ZM343.202 198.751V200.626H345.148L345.075 198.681L343.202 198.751ZM319.464 198.751L317.672 199.303L318.079 200.626H319.464V198.751ZM314.739 192.001L315.814 190.465L315.814 190.465L314.739 192.001ZM293.251 195.039L294.563 196.378L294.563 196.378L293.251 195.039ZM286.164 209.552L288.006 209.902L288.009 209.887L288.011 209.871L286.164 209.552ZM289.314 225.639L287.912 226.885L287.931 226.905L287.949 226.926L289.314 225.639ZM308.551 227.214L307.644 225.573L307.635 225.578L307.626 225.584L308.551 227.214ZM315.639 220.464V218.589H314.614L314.06 219.452L315.639 220.464ZM339.489 220.464L341.232 221.156L342.25 218.589H339.489V220.464ZM322.501 242.064L323.555 243.615L323.566 243.608L322.501 242.064ZM278.289 246.002L277.41 247.658L277.42 247.664L278.289 246.002ZM266.926 234.864L268.571 233.965L268.571 233.965L266.926 234.864ZM263.776 209.552L265.623 209.871C266.928 202.333 269.675 195.662 273.85 189.83L272.326 188.739L270.801 187.647C266.277 193.966 263.324 201.17 261.928 209.232L263.776 209.552ZM272.326 188.739L273.857 189.822C278.035 183.915 283.279 179.355 289.605 176.121L288.751 174.451L287.897 172.782C281.023 176.297 275.317 181.263 270.795 187.656L272.326 188.739ZM288.751 174.451L289.62 176.113C295.939 172.81 302.839 171.151 310.351 171.151V169.276V167.401C302.264 167.401 294.763 169.193 287.883 172.79L288.751 174.451ZM310.351 169.276V171.151C316.646 171.151 322.053 172.308 326.623 174.558L327.452 172.876L328.28 171.194C323.1 168.644 317.107 167.401 310.351 167.401V169.276ZM327.452 172.876L326.623 174.558C331.195 176.809 334.708 179.984 337.214 184.09L338.814 183.114L340.415 182.137C337.52 177.393 333.458 173.743 328.28 171.194L327.452 172.876ZM338.814 183.114L337.214 184.09C339.722 188.201 341.113 193.091 341.328 198.822L343.202 198.751L345.075 198.681C344.84 192.412 343.307 186.877 340.415 182.137L338.814 183.114ZM343.202 198.751V196.876H319.464V198.751V200.626H343.202V198.751ZM319.464 198.751L321.256 198.2C320.248 194.924 318.445 192.307 315.814 190.465L314.739 192.001L313.664 193.537C315.533 194.846 316.88 196.729 317.672 199.303L319.464 198.751ZM314.739 192.001L315.814 190.465C313.19 188.628 310.019 187.764 306.414 187.764V189.639V191.514C309.408 191.514 311.788 192.224 313.664 193.537L314.739 192.001ZM306.414 189.639V187.764C300.818 187.764 295.961 189.759 291.939 193.699L293.251 195.039L294.563 196.378C297.891 193.118 301.809 191.514 306.414 191.514V189.639ZM293.251 195.039L291.939 193.699C287.931 197.626 285.419 202.848 284.316 209.232L286.164 209.552L288.011 209.871C289.008 204.105 291.222 199.652 294.563 196.378L293.251 195.039ZM286.164 209.552L284.322 209.201C283.997 210.904 283.839 212.71 283.839 214.614H285.714H287.589C287.589 212.918 287.73 211.349 288.006 209.902L286.164 209.552ZM285.714 214.614H283.839C283.839 219.588 285.128 223.752 287.912 226.885L289.314 225.639L290.715 224.394C288.7 222.126 287.589 218.94 287.589 214.614H285.714ZM289.314 225.639L287.949 226.926C290.844 229.996 294.751 231.452 299.439 231.452V229.577V227.702C295.577 227.702 292.733 226.533 290.678 224.353L289.314 225.639ZM299.439 229.577V231.452C303.052 231.452 306.41 230.586 309.477 228.845L308.551 227.214L307.626 225.584C305.143 226.993 302.426 227.702 299.439 227.702V229.577ZM308.551 227.214L309.458 228.855C312.599 227.12 315.186 224.645 317.217 221.476L315.639 220.464L314.06 219.452C312.342 222.133 310.204 224.159 307.644 225.573L308.551 227.214ZM315.639 220.464V222.339H339.489V220.464V218.589H315.639V220.464ZM339.489 220.464L337.746 219.773C334.277 228.518 328.844 235.415 321.437 240.521L322.501 242.064L323.566 243.608C331.609 238.064 337.501 230.561 341.232 221.156L339.489 220.464ZM322.501 242.064L321.448 240.514C314.052 245.539 305.612 248.064 296.064 248.064V249.939V251.814C306.316 251.814 315.5 249.089 323.555 243.615L322.501 242.064ZM296.064 249.939V248.064C289.48 248.064 283.864 246.799 279.157 244.34L278.289 246.002L277.42 247.664C282.763 250.455 288.997 251.814 296.064 251.814V249.939ZM278.289 246.002L279.167 244.345C274.533 241.888 271.016 238.435 268.571 233.965L266.926 234.864L265.281 235.764C268.086 240.894 272.144 244.866 277.41 247.658L278.289 246.002ZM266.926 234.864L268.571 233.965C266.118 229.48 264.863 224.248 264.863 218.214H262.988H261.113C261.113 224.781 262.483 230.649 265.281 235.764L266.926 234.864ZM262.988 218.214H264.863C264.863 215.402 265.116 212.628 265.62 209.891L263.776 209.552L261.932 209.212C261.386 212.175 261.113 215.176 261.113 218.214H262.988ZM429.694 170.064L431.541 170.388L431.928 168.189H429.694V170.064ZM415.744 249.377V251.252H417.318L417.59 249.702L415.744 249.377ZM393.581 249.377L391.735 249.051L391.346 251.252H393.581V249.377ZM399.206 217.539L401.053 217.865L401.441 215.664H399.206V217.539ZM372.431 217.539V215.664H370.858L370.584 217.213L372.431 217.539ZM366.806 249.377V251.252H368.379L368.652 249.703L366.806 249.377ZM344.643 249.377L342.797 249.05L342.406 251.252H344.643V249.377ZM358.706 170.064V168.189H357.134L356.859 169.736L358.706 170.064ZM380.756 170.064L382.602 170.39L382.991 168.189H380.756V170.064ZM375.468 199.989L373.622 199.663L373.233 201.864H375.468V199.989ZM402.356 199.989V201.864H403.929L404.203 200.315L402.356 199.989ZM407.644 170.064V168.189H406.071L405.797 169.737L407.644 170.064ZM429.694 170.064L427.847 169.739L413.897 249.052L415.744 249.377L417.59 249.702L431.541 170.388L429.694 170.064ZM415.744 249.377V247.502H393.581V249.377V251.252H415.744V249.377ZM393.581 249.377L395.427 249.703L401.053 217.865L399.206 217.539L397.36 217.213L391.735 249.051L393.581 249.377ZM399.206 217.539V215.664H372.431V217.539V219.414H399.206V217.539ZM372.431 217.539L370.584 217.213L364.959 249.051L366.806 249.377L368.652 249.703L374.277 217.865L372.431 217.539ZM366.806 249.377V247.502H344.643V249.377V251.252H366.806V249.377ZM344.643 249.377L346.489 249.704L360.552 170.391L358.706 170.064L356.859 169.736L342.797 249.05L344.643 249.377ZM358.706 170.064V171.939H380.756V170.064V168.189H358.706V170.064ZM380.756 170.064L378.91 169.737L373.622 199.663L375.468 199.989L377.315 200.315L382.602 170.39L380.756 170.064ZM375.468 199.989V201.864H402.356V199.989V198.114H375.468V199.989ZM402.356 199.989L404.203 200.315L409.49 170.39L407.644 170.064L405.797 169.737L400.51 199.663L402.356 199.989ZM407.644 170.064V171.939H429.694V170.064V168.189H407.644V170.064ZM495.095 166.014L496.925 166.42L497.432 164.139H495.095V166.014ZM483.17 219.677V221.552H484.674L485 220.083L483.17 219.677ZM464.27 219.677L462.41 219.439L462.139 221.552H464.27V219.677ZM471.132 166.014V164.139H469.482L469.272 165.776L471.132 166.014ZM460.107 247.689L458.865 249.094L458.878 249.105L458.891 249.117L460.107 247.689ZM459.095 234.302L457.517 233.288L457.513 233.295L457.508 233.303L459.095 234.302ZM464.607 229.352L465.467 231.018L465.488 231.007L465.509 230.996L464.607 229.352ZM480.357 230.139L479.085 231.517L479.113 231.542L479.141 231.567L480.357 230.139ZM479.007 246.452L480.257 247.849L480.26 247.847L479.007 246.452ZM495.095 166.014L493.265 165.607L481.339 219.27L483.17 219.677L485 220.083L496.925 166.42L495.095 166.014ZM483.17 219.677V217.802H464.27V219.677V221.552H483.17V219.677ZM464.27 219.677L466.129 219.915L472.992 166.251L471.132 166.014L469.272 165.776L462.41 219.439L464.27 219.677ZM471.132 166.014V167.889H495.095V166.014V164.139H471.132V166.014ZM468.32 250.277V248.402C465.18 248.402 462.919 247.621 461.323 246.262L460.107 247.689L458.891 249.117C461.346 251.208 464.559 252.152 468.32 252.152V250.277ZM460.107 247.689L461.349 246.285C459.831 244.942 459.057 243.217 459.057 240.939H457.182H455.307C455.307 244.212 456.483 246.987 458.865 249.094L460.107 247.689ZM457.182 240.939H459.057C459.057 238.892 459.595 237.026 460.681 235.301L459.095 234.302L457.508 233.303C456.044 235.628 455.307 238.187 455.307 240.939H457.182ZM459.095 234.302L460.672 235.316C461.835 233.506 463.42 232.075 465.467 231.018L464.607 229.352L463.747 227.686C461.145 229.029 459.054 230.898 457.517 233.288L459.095 234.302ZM464.607 229.352L465.509 230.996C467.537 229.884 469.811 229.314 472.37 229.314V227.439V225.564C469.229 225.564 466.327 226.27 463.705 227.708L464.607 229.352ZM472.37 227.439V229.314C475.406 229.314 477.568 230.117 479.085 231.517L480.357 230.139L481.629 228.761C479.246 226.562 476.083 225.564 472.37 225.564V227.439ZM480.357 230.139L479.141 231.567C480.728 232.918 481.52 234.637 481.52 236.889H483.395H485.27C485.27 233.592 484.037 230.81 481.573 228.712L480.357 230.139ZM483.395 236.889H481.52C481.52 240.079 480.305 242.768 477.755 245.056L479.007 246.452L480.26 247.847C483.559 244.886 485.27 241.2 485.27 236.889H483.395ZM479.007 246.452L477.757 245.055C475.292 247.26 472.192 248.402 468.32 248.402V250.277V252.152C472.997 252.152 477.022 250.744 480.257 247.849L479.007 246.452Z" fill="#25DD6F" mask="url(#path-4-outside-2_215_122)"/>
</g>
<defs>
<linearGradient id="paint0_linear_215_122" x1="252.187" y1="0" x2="252.187" y2="181" gradientUnits="userSpaceOnUse">
<stop offset="0.463542" stop-color="#25DD6F"/>
<stop offset="1" stop-color="#04CB00"/>
</linearGradient>
<clipPath id="clip0_215_122">
<rect width="498.755" height="71.2507" fill="white" transform="translate(1.875 183.752)"/>
</clipPath>
<clipPath id="clip1_215_122">
<rect width="498.755" height="71.2507" fill="white" transform="translate(0 240.003)"/>
</clipPath>
</defs>
</svg>
