<svg xmlns="http://www.w3.org/2000/svg" width="320" height="1077" fill="none"><g stroke="#565656" stroke-width=".2" clip-path="url(#a)"><path d="M0-83v1160M40-83v1160M80-83v1160M120-83v1160M160-83v1160M200-83v1160M240-83v1160M280-83v1160M320-83v1160M0 37h410M0 77h410M0 117h410M0 157h410M0 197h410M0 237h410M0 277h410M0 317h410M0 357h410M0 397h410M0 437h410M0 477h410M0 517h410M0 557h410M0 597h410M0 637h410M0 677h410M0 717h410M0 757h410M0 797h410M0 837h410M0 877h410M0 917h410M0 957h410M0 997h410M0 1037h410M0 1077h410"/></g><defs><clipPath id="a"><path fill="#fff" d="M0 0h320v1077H0z"/></clipPath></defs></svg>