<svg xmlns="http://www.w3.org/2000/svg" width="1920" height="574" fill="none"><path fill="#AF856A" d="M263.856 280.852c62.181-61.806 196.404-168.468 277.845-216.86 1.469-.916 2.94-1.83 4.414-2.74 4.08-2.52 8.125-4.996 12.175-7.453 3.598-2.15 7.431-4.61 14.806-7.17 7.297-2.647 22.68-4.89 36.293 3.29 14.638 7.837 21.5 26.817 20.583 37.532-.303 8.449-2.038 13.222-3.365 17.226-3.569 9.71-7.049 15.732-10.739 22.383-5.47 9.608-11.351 18.873-17.838 28.74-24.562 37.133-57.921 82.816-110.604 152.323-14.804 19.524-31.128 40.905-49.169 64.495-22.768 30.347-45.63 60.662-68.058 91.007a2786.217 2786.217 0 0 0-16.737 22.88c-4.015 5.559-7.994 11.126-11.841 16.656l-29.268-27.382c43.869-32.206 86.927-67.8 130.348-102.464 68.675-55.082 138.099-109.77 210.557-160.455 70.464-48.923 143.46-95.534 223.781-128.217 60.684-23.805 131.151-42.868 196.341-16.53 7.47 2.991 14.92 9.094 18.34 17.317 3.48 8.058 3.22 16.575 1.8 23.953-1.95 9.889-5.77 18.614-9.95 26.941-4.23 8.311-9.05 16.135-14.12 23.721-27.94 40.979-61.82 76.243-93.169 113.576-13.558 16.171-26.97 32.534-38.288 50.366-3.908 6.26-7.586 12.716-10.242 19.621-.776 2.048-1.451 4.142-1.918 6.281-.458 2.129-.588 4.41-.003 6.46.57 2.205 2.21 3.433 4.176 3.722 4.672.687 9.758-1.4 14.338-4.029 23.523-14.497 39.395-44.653 63.376-52.745 59.58-20.93 119-43.16 178.62-65.558 6.03-2.342 12.16-4.727 18.37-7.139 119.54-46.932 270.36-103.497 368.62-130.568 57.43-16.293 107.11-28.13 150.98-37.062 5.83-1.163 12.96-2.374 23.13-.82 9.91 1.218 24.17 8.394 31.5 18.713 7.98 10.368 10.2 22.533 10.1 30.788-.1 8.385-1.62 14.022-2.98 18.693-9.51 26.774-18.91 38.173-27.68 52.784-9.38 14.63-18.22 27.756-26.53 40.29-17.75 27.582-35.07 54.895-48.69 82.096-8.1 16.146-15.11 33.651-16.53 45.327-.48 3.463-.12 5.86-.23 5.384-.08-.199-.44-1.125-1.16-2.068-.7-.951-1.65-1.729-2.07-1.962-1.36-.344 4.98 2.035 12.25 2.114 7.42.316 16.21-.344 25.22-1.592 40.2-5.9 83.23-20.324 125.01-35.727 166.45-62.742 332.18-131.641 497.82-199.403.24-.102.98-.389 1.23-.48 0-.001.01-.002.01-.004l-1.45.573c1.84-.775 3.69-1.55 5.53-2.325 14.94-6.383 31.29.215 37.67 15.148l4.65 11.063c6.36 14.901-.22 31.216-15.12 37.583-1.85.775-3.69 1.549-5.53 2.324l1.57-.729c0 .001 0 .003-.01.005-.35.176-1.42.667-1.79.819 0 .004-.01.007-.02.01l.4-.172a68.79 68.79 0 0 1-.42.182c-81.17 33.335-162.36 66.769-243.64 99.931-84.8 34.531-169.68 69.091-255.62 101.826-34.43 12.993-69.36 25.103-106.4 34.002-10.85 2.573-21.96 4.846-33.4 6.532-25.59 2.7-53.98 8.614-88.11-11.423-25.19-15.364-31.92-49.353-28.66-69.539 3.46-27.543 13.18-48.804 22.97-69.479 21.06-42.755 46.48-80.726 70.04-118.463 2.29-3.754 4.54-7.477 6.73-11.162 7.48-12.551 16.16-28.035 18.07-34.964.04-.169.03-.235-.03.034-.06.34-.24.69-.28 3.041-.01.615.03 1.353.07 1.796l23.65 25.04c2.41.316 3.17.232 3.89.229.66-.022 1.02-.06 1.27-.085.49-.054.54-.068.47-.041-41.36 9.808-80.83 20.786-118.14 32.12-80.09 24.381-150.35 50.166-208.46 71.583-124.41 45.95-263.53 101.042-378.06 140.854-14.7 5.134-29.19 9.813-43.829 13.735-14.61 3.817-28.924 7.197-45.77 8.114-8.24.292-17.35.298-28.699-3.328a54.982 54.982 0 0 1-7.874-3.233c-12.763-5.632-24.848-22.108-26.191-36.325-1.91-14.938 1.587-25.087 4.509-33.437 4.002-10.582 8.661-18.866 13.384-26.781 12.621-20.684 26.14-38.215 39.648-55.679 30.092-38.742 61.832-75.694 86.332-113.282 4.2-6.539 8.08-13.083 11.16-19.244 2.73-4.638 5.04-9.323 6.17-12.402.18-.475.33-.897.45-1.234.24-.65.32-.99.42-.492.13.478.19 1.98 1.46 4.742 1.04 2.327 3.14 4.83 4.72 5.998 1.6 1.231 2.54 1.495 2.75 1.516-36.52-17.96-94.496-12.363-160.689 14.978-37.281 15.177-77.868 36.7-122.179 64.353-28.479 17.776-58.515 38.105-90.379 61.083-35.371 25.505-72.974 54.283-113.267 86.42-47.077 37.655-72.813 57.461-93.594 73.083l-2.921 2.206c-6.258 4.725-12.123 9.163-18.022 13.721-20.216 15.604-40.115 33.775-64.025 55.04-18.066 15.913-37.856 33.724-64.094 52.723-1.803 1.26-4.366 2.934-8.149 4.349-8.464 3.567-22.473 2.257-30.78-5.424-8.175-6.617-11.852-18.909-10.355-27.596.513-3.726 1.472-6.446 2.237-8.416 3.789-8.805 6.344-12.099 9.363-17.042 7.316-11.383 15.113-22.3 23.558-33.791 4.158-5.643 8.251-11.16 12.266-16.558 49.048-65.605 86.372-115.977 115.308-157.178 39.868-56.624 64.369-95.264 84.196-128.135a1587.419 1587.419 0 0 0 15.708-26.648c4.257-7.402 8.353-14.663 12.157-21.816 2.629-4.952 5.448-10.517 6.923-14.364l38.562 31.83c-48.733 31.897-109.917 75.892-156.178 112.023-41.197 31.331-117.743 101.608-173.618 157.604-21.226 21.056-50.382 49.121-84.765 82.335-22.776 21.982-47.872 46.213-74.675 71.947-8.721 8.228-17.325 16.466-30.1 24.855-4.212 2.636-8.886 5.436-15.984 7.74-6.041 1.899-15.048 3.515-25.15.343-9.6-2.584-19.49-11.992-22.873-20.167-3.558-7.784-4.148-14.029-4.373-19.413-.12-13.695 2.256-22.271 4.295-31.013 24.365-81.527 50.76-131.736 69.599-175.864 13.476-30.005 24.883-54.926 35.272-77.719 7.817-17.139 15.085-33.081 22.273-49.001 10.418-23.096 21.995-48.774 33.567-75.807 9.538-22.474 19.669-46.537 26.705-69.124 1.766-5.636 3.366-12.616 3.366-14.06-.001-.018-.02.077-.02.542.001.24.006.57.05 1.139.057.598.093 1.3.465 3.058l18.772 21.961a13.662 13.662 0 0 0-2.161-.628c-2.776-.496-5.735-.287-11.587 2.703-9.903 5.112-21.869 16.94-32.057 29.768-28.679 36.565-50.334 80.456-67.575 116.387a1695.91 1695.91 0 0 0-9.622 19.757c-24.532 51.095-46.812 103.802-71.419 156.85-9.348 19.897-18.754 39.747-30.83 60.215-4.424 7.362-9.102 14.79-15.635 22.801-5.101 5.917-10.659 12.817-22.77 19.147l-5.39 2.638c-14.941 7.537-32.152 1.711-39.689-13.23l-5.274-10.779c-7.51-14.887-1.705-32.037 13.182-39.548l5.389-2.638c-1.732.899-2.193 1.34-2.466 1.546-.24.203-.173.174-.012.027.343-.305 1.07-1.069 1.846-2.001 2.816-3.362 6.257-8.559 9.463-13.92 9.672-16.277 18.709-35.069 27.495-53.797 10.956-23.483 21.6-47.548 32.385-71.644 13.106-29.313 26.518-58.182 40.313-85.439 23.037-45.577 47.254-86.699 71.751-117.872 7.711-9.826 15.305-18.497 22.638-25.908 29.85-30.859 56.05-37.126 57.684-32.43 2.159 4.67-15.207 17.53-35.737 50.193-5.11 7.952-10.534 17.015-16.183 27.15-17.955 32.124-37.107 73.436-56.907 119.171-11.857 27.337-23.979 56.25-36.547 85.678-10.356 24.207-20.633 48.549-31.525 72.96-8.82 19.588-17.676 39.112-29.047 59.083-3.927 6.752-8.001 13.495-13.839 20.855-3.906 4.351-5.938 8.508-17.05 14.868l-5.343 2.726 11.121-33.363 5.453 10.689-33.496-11.166 5.345-2.727c-.668.456 2.144-1.693 4.574-4.912 3.417-4.305 7.08-10.092 10.545-16.127 9.731-17.082 18.614-36.373 27.271-55.663C.998 315.822 22.703 262.117 47.138 209.149c5.63-12.223 11.404-24.425 17.39-36.579 18.951-38.025 38.832-75.926 67.079-111.862 13.273-16.2 27.731-32.717 51.062-45.328 15.94-9.036 42.212-13.354 62.695-4.62 7.329 2.896 16.061 13.04 17.73 20.742.9 4.423.809 6.1.879 8.022a53.239 53.239 0 0 1-.148 4.596c-1.211 12.453-3.579 19.269-5.841 27.173-8.511 27.17-18.68 51.008-28.954 75.249-29.773 69.053-61.773 136.01-92.405 203.315-11.406 25.029-22.658 50.037-33.408 75.077-12.957 30.499-26.274 62.122-34.038 90.717-1.715 6.368-2.817 13.398-2.66 15.135-.055.291.305-.374-1.171-3.62-1.161-3.19-7.054-8.755-11.426-9.781-5.185-1.617-8.583-.57-9.136-.418-.747.275.768-.31 2.507-1.452 5.819-3.691 13.885-10.727 21.301-17.824 58.016-55.408 115.379-112.064 174.239-167.741a4782.5 4782.5 0 0 1 33.346-31.254C365.541 212.174 461.88 131.182 535.51 81.078a1178.127 1178.127 0 0 1 27.702-18.563c32.606-20.981 67.594 7.862 53.084 43.818-9.104 20.937-16.954 32.247-24.926 45.317-19.219 30.285-36.414 54.367-52.079 76.372-18.079 25.277-34.239 47.379-50.143 70.039l-5.284 7.529a29996.05 29996.05 0 0 1-28.979 41.242c-22.525 32.05-51.518 72.791-83.067 117.933-10.997 15.835-22.771 32.657-32.888 48.637a168.691 168.691 0 0 0-3.182 5.26 53.67 53.67 0 0 0-1.085 1.964c-.123.237-.209.414-.226.452-.014.03.037-.055.24-.563.246-.659.939-2.346 1.381-5.482 1.381-7.186-1.996-19.388-9.881-25.732-3.55-3.182-9.452-6.09-14.899-6.807-5.546-.761-9.754-.097-14.007 1.408-3.212 1.197-4.844 2.368-5.476 2.789 45.495-32.709 93.75-74.788 140.602-112.909 2.098-1.721 4.204-3.447 6.345-5.198 51.665-42.297 111.947-90.154 171.766-133.515a2387.37 2387.37 0 0 1 38.843-27.607c74.887-52.554 146.678-93.074 187.451-113.036 11.901-5.975 24.329-11.771 37.193-17.176 57.584-23.453 130.885-46.305 202.825-17.436 6.84 2.657 18.12 9.951 23.11 22.043 5.34 13.47 3.43 22.245 2.34 29.186-3.86 17.541-10.26 28.228-16.33 39.078-2.99 5.135-6.06 9.994-9.15 14.683-33.3 48.92-66.91 85.933-90.363 116.786-10.445 13.464-19.061 25.316-25.389 35.12-3.436 5.318-6.653 10.498-9.522 15.496-3.573 6.217-6.68 12.362-8.392 17.174-1.442 3.674-1.306 6.539-1.367 4.664-.095-.832-.618-2.606-1.773-4.18-1.124-1.594-2.637-2.631-3.302-2.932-1.723-.553 2.056.705 7.198.35 12.341-.521 29.959-4.67 48.787-10.331 7.723-2.325 15.823-4.957 24.323-7.884 37.88-13.046 83.15-29.333 140.59-51.115 81.56-30.989 139.75-52.358 189.48-69.882 70.04-24.595 122.91-42.727 202-69.858 59.7-20.357 122.37-38.756 180.42-52.025 1.31-.294 2.73-.58 4.59-.82 2.05-.174 3.55-.636 9.09-.006 11.53 1.653 21.55 12.218 22.51 23.823.06.701.11 1.684.11 2.548-.18 7.127-1.15 9.248-1.87 12.167-7.88 22.896-16.23 33.897-24.3 47.751-4.08 6.624-8.14 13.012-12.08 19.135-18.74 29.216-40.16 61.998-58.12 96.747a407.713 407.713 0 0 0-4.53 9.074c-8.59 17.761-16.16 36.755-17.89 52.08-.67 5.859-.23 10.834.77 13.767 1.06 2.965 1.94 4.184 4.53 6.081 3.87 2.893 12.95 5.214 23.02 5.56 9.16.397 18.86-.282 28.28-1.381 26.24-3.201 50.36-8.987 72.12-14.688 9.23-2.452 18.12-4.99 26.7-7.592 10.55-3.702 21.05-7.576 31.57-11.596 21.15-8.092 42.6-16.506 63.73-24.901 5.01-2.269 10.4-4.727 15.88-7.236 27.84-12.732 61.87-28.477 104.56-46.944 67.57-29.241 127.54-53.144 190.89-78.429 38.25-15.273 77.67-31.049 120.68-48.869l-.35.148c.01-.003.02-.006.02-.009.07-.031.28-.119.35-.148.01-.004.02-.007.02-.01l-1.54.705c.01-.002.01-.003.01-.005.27-.134 1.08-.51 1.36-.627 1.83-.778 3.68-1.559 5.52-2.345l-12.98 32.274c-1.55-3.653-3.12-7.332-4.7-11.039l32.27 12.979-5.52 2.362c-.24.105-.99.399-1.24.49 0 .002-.01.003-.01.004l1.06-.411c-5.3 2.218-10.64 4.466-16.04 6.748-39.8 16.812-84.93 36.375-129.7 55.716-66.49 28.731-132.29 56.95-178.6 75.133-17.3 6.795-32.65 11.885-47.72 16.838l-.21.061c-1.03.338-2.06.679-3.08 1.016-40.54 16.651-81.29 33.196-122.22 49.154-43.67 16.705-87.51 32.772-136.97 41.004-23.02 2.159-45.85 9.476-80.33-9.192-19.22-11.508-25.81-37.545-24.62-51.688.03-2.611.18-5.118.4-7.546 1.11-11.845 3.79-22.073 6.81-31.67 4.02-12.607 8.82-24.091 13.79-34.988 17.42-37.579 36.36-68.53 48.66-90.84 5.39-9.712 13.86-23.807 23.57-40.541 6.74-11.637 16.2-28.535 18.15-36.105.18-.647-.14-.59-.23 1.981-.09 2.436.67 8.38 4.85 13.839 3.57 5.237 11.71 9.178 15.41 9.489 3.93.577 4.77.094 4.55.252-25.67 6.115-53.13 13.243-80.91 21.106-57.8 16.298-116.96 35.961-164.88 53.443-28.02 10.205-55.08 18.64-82.92 27.565-25.97 8.329-52.62 17.102-81.24 28.221-14.33 5.569-29.69 11.915-46.1 18.723-14.44 5.992-29.71 12.355-45.79 18.844-14.94 6.017-48.62 18.416-92.03 34.135-26.83 9.706-57.4 20.656-89.62 31.962a4765.67 4765.67 0 0 1-22.43 8.329c-26.23 9.407-59.96.626-89.45-7.683-5.788-1.865-11.62-3.526-16.585-7.106-2.16-1.507-3.581-4.219-3.506-6.556-.056-2.283.381-4.439.834-6.581.467-2.139 1.135-4.235 1.898-6.289 2.61-6.924 6.174-13.446 9.919-19.821 10.852-18.158 23.4-35.241 35.922-52.286 8.633-11.686 17.395-23.309 26.114-34.92 11.184-14.993 20.764-28.072 28.134-38.551a813.538 813.538 0 0 0 14.08-20.659c4.91-7.468 9.87-15.161 15.78-24.954 1.29-2.154 2.63-4.408 4-6.786 2.95-5.086 6.02-10.639 8.68-15.98 2.76-5.493 4.99-10.782 6.44-14.997 1.09-3.183 1.79-5.751 2.27-8.01.1-.486.2-.958.28-1.421.52-2.992.74-5.632.39-8.565-.22-1.793-.67-3.54-1.51-5.353-.15-.315-.3-.63-.48-.946-1.57-2.769-4.09-5.844-10.13-8.323-1.57-.64-3.26-1.292-5.07-1.95-37.96-14.28-86.661-10.015-130.812 3.376-16.508 4.897-32.614 10.885-48.027 17.396-30.706 12.992-58.647 27.973-82.023 41.581-36.565 21.144-85.903 53.706-134.385 89.836a2100.326 2100.326 0 0 0-11.306 8.45c-36.397 27.379-71.999 56.013-102.145 81.079-29.563 24.564-59.752 50.863-88.868 76.587l-.748.66c-34.705 30.633-67.839 60.41-97.288 84.8-6.011 4.969-13.743 10.787-23.67 17.955-2.28 1.644-4.686 3.366-7.192 5.14-17.456 13.19-39.273-7.183-27.133-25.385 3.774-5.298 7.912-10.977 12.412-17.144a2806.334 2806.334 0 0 1 15.987-23.908c21.943-32.463 44.15-64.616 66.269-96.783.894-1.459 1.819-2.968 2.745-4.482l.042-.073c10.487-17.156 22.859-37.546 38.095-61.549 15.04-23.701 32.896-50.904 54.437-82.011 11.005-15.911 18.359-25.602 24.948-34.321 6.47-8.587 12.246-16.251 19.621-28.025a363.198 363.198 0 0 0 5.03-8.294c6.628-11.341 14.447-25.51 18.726-37.262.369-1.075.659-2.065.777-2.686.234-.884-.139-1.292-.389 1.55-.076 2.152.07 4.727 1.67 8.374 1.511 3.593 5.126 7.6 8.444 9.494 6.956 4.32 14.577 2.91 15.975 2.405 1.596-.486.517.007-.653.941-14.514 10.215-29.471 20.87-44.682 31.299-1.803 1.236-3.74 2.567-5.754 3.962-19.11 13.186-47.01 33.332-74.927 53.438-79.333 64.115-154.045 134.5-228.278 206.131-45.224 43.638-90.314 87.782-136.299 131.344-8.489 7.884-16.415 15.484-29.206 23.795-3.552 2.11-6.592 4.275-14.359 6.867a40.91 40.91 0 0 1-4.157 1.057c-1.903.311-3.445.802-8.568.664-8.17-.454-20.424-7.481-24.716-14.447-2.066-3.397-2.548-4.953-3.123-6.446a35.846 35.846 0 0 1-1.051-3.466 39.872 39.872 0 0 1-.841-4.424 49.357 49.357 0 0 1-.42-5.563c.14-14.074 2.448-20.754 4.388-28.877C40.484 438.699 67.357 385.796 93.1 329.847c11.353-24.057 22.897-47.962 34.478-71.783 22.002-45.27 44.633-88.744 64.625-127.523 13-25.325 25.106-48.793 33.94-69.113l.565-1.32c2.913-6.835 5.387-13.436 6.589-18.318.528-2.06.705-3.652.9-4.156.146-.252.297-.32.634-.236.32.08.848.185 1.088.044-24.107-14.43-45.101-4.06-46.617-9.156-.983-1.935 1.886-6.521 10.721-11.703 8.529-4.97 25.449-10.508 46.33-4.391 7.848 2.512 14.309 10.224 16.522 17.066 2.034 5.836 2.288 10.7 2.364 14.971-.006 9.841-1.435 18.003-3.106 26.618a199.98 199.98 0 0 1-.331 1.628c-5.238 24.741-13.567 50.552-23.357 78.157-15.042 42.123-33.931 87.766-54.427 133.765-10.786 24.196-21.64 48.307-32.404 72.352-24.09 54.717-50.906 112.067-65.63 163.285-.688 2.695-1.268 5.288-1.641 7.421a38.216 38.216 0 0 0-.382 2.634c-.068.607-.04.995-.04.276-.009-.233 0-.644-.156-1.857a25.568 25.568 0 0 0-.56-2.895 30.402 30.402 0 0 0-.9-2.952c-.545-1.39-.958-2.855-3.183-6.519l-29.074-16.995c-5.254-.131-6.295.333-7.776.551-1.289.26-2.046.482-2.643.664-2.07.668-2.27.877-2.359.895-.03.013.3-.172.738-.454 4.219-2.672 11.885-9.305 18.561-15.731 19.695-18.84 39.342-37.807 59.026-56.814a9134.213 9134.213 0 0 1 15.319-15.14c37.994-37.46 72.715-73.041 108.257-108.131a3289.151 3289.151 0 0 1 24.685-24.135Z"/><path fill="#FFB181" d="M253.856 274.852c62.181-61.806 196.404-168.468 277.845-216.86 1.469-.916 2.94-1.83 4.414-2.74 4.08-2.52 8.125-4.996 12.175-7.453 3.598-2.15 7.431-4.61 14.806-7.17 7.297-2.647 22.68-4.89 36.293 3.29 14.638 7.837 21.5 26.817 20.583 37.532-.303 8.449-2.038 13.222-3.365 17.226-3.569 9.71-7.049 15.732-10.739 22.383-5.47 9.608-11.351 18.873-17.838 28.74-24.562 37.133-57.921 82.816-110.604 152.323-14.804 19.524-31.128 40.905-49.169 64.495-22.768 30.347-45.63 60.662-68.058 91.007a2786.217 2786.217 0 0 0-16.737 22.88c-4.015 5.559-7.994 11.126-11.841 16.656l-29.268-27.382c43.869-32.206 86.927-67.8 130.348-102.464 68.675-55.082 138.099-109.77 210.557-160.455 70.464-48.923 143.46-95.534 223.781-128.217 60.684-23.805 131.153-42.868 196.341-16.53 7.47 2.991 14.92 9.094 18.34 17.317 3.48 8.058 3.22 16.575 1.8 23.953-1.95 9.889-5.77 18.614-9.95 26.941-4.23 8.311-9.05 16.135-14.12 23.721-27.94 40.979-61.819 76.243-93.169 113.576-13.558 16.171-26.97 32.534-38.288 50.366-3.908 6.26-7.586 12.716-10.242 19.621-.776 2.048-1.451 4.142-1.918 6.281-.458 2.129-.588 4.41-.003 6.46.57 2.205 2.21 3.433 4.176 3.722 4.672.687 9.758-1.4 14.338-4.029 23.523-14.497 39.395-44.653 63.375-52.745 59.581-20.93 119.001-43.16 178.621-65.558 6.03-2.342 12.16-4.727 18.37-7.139 119.54-46.932 270.36-103.497 368.62-130.568 57.43-16.293 107.11-28.13 150.98-37.062 5.83-1.163 12.96-2.374 23.13-.82 9.91 1.218 24.17 8.394 31.5 18.713 7.98 10.368 10.2 22.533 10.1 30.788-.1 8.385-1.62 14.022-2.98 18.693-9.51 26.774-18.91 38.173-27.68 52.784-9.38 14.63-18.22 27.756-26.53 40.29-17.75 27.582-35.07 54.895-48.69 82.096-8.1 16.146-15.11 33.651-16.53 45.327-.48 3.463-.12 5.86-.23 5.384-.08-.199-.44-1.125-1.16-2.068-.7-.951-1.65-1.729-2.07-1.962-1.36-.344 4.98 2.035 12.25 2.114 7.42.316 16.21-.344 25.22-1.592 40.2-5.9 83.23-20.324 125.01-35.727 166.45-62.742 332.18-131.641 497.82-199.403.24-.102.98-.389 1.23-.48 0-.001.01-.002.01-.004l-1.45.573c1.84-.775 3.69-1.55 5.53-2.325 14.94-6.383 31.29.215 37.67 15.148l4.65 11.063c6.36 14.901-.22 31.216-15.12 37.583-1.85.775-3.69 1.549-5.53 2.324l1.57-.729c0 .001 0 .003-.01.005-.35.176-1.42.667-1.79.819 0 .004-.01.007-.02.01l.4-.172a68.79 68.79 0 0 1-.42.182c-81.17 33.335-162.36 66.769-243.64 99.931-84.8 34.531-169.68 69.091-255.62 101.826-34.43 12.993-69.36 25.103-106.4 34.002-10.85 2.573-21.96 4.846-33.4 6.532-25.59 2.7-53.98 8.614-88.11-11.423-25.19-15.364-31.92-49.353-28.66-69.539 3.46-27.543 13.18-48.804 22.97-69.479 21.06-42.755 46.48-80.726 70.04-118.463 2.29-3.754 4.54-7.477 6.73-11.162 7.48-12.551 16.16-28.035 18.07-34.964.04-.169.03-.235-.03.034-.06.34-.24.69-.28 3.041-.01.615.03 1.353.07 1.796l23.65 25.04c2.41.316 3.17.232 3.89.229.66-.022 1.02-.06 1.27-.085.49-.054.54-.068.47-.041-41.36 9.808-80.83 20.786-118.14 32.12-80.09 24.381-150.35 50.166-208.46 71.583-124.41 45.95-263.53 101.042-378.06 140.854-14.7 5.134-29.186 9.813-43.829 13.735-14.61 3.817-28.924 7.197-45.77 8.114-8.24.292-17.35.298-28.699-3.328a54.982 54.982 0 0 1-7.874-3.233c-12.763-5.632-24.848-22.108-26.191-36.325-1.91-14.938 1.587-25.087 4.509-33.437 4.002-10.582 8.661-18.866 13.384-26.781 12.621-20.684 26.14-38.215 39.648-55.679 30.092-38.742 61.828-75.694 86.332-113.282 4.2-6.539 8.08-13.083 11.16-19.244 2.73-4.638 5.04-9.323 6.17-12.402.18-.475.33-.897.45-1.234.24-.65.32-.99.42-.492.13.478.19 1.98 1.46 4.742 1.04 2.327 3.14 4.83 4.72 5.998 1.6 1.231 2.54 1.495 2.75 1.516-36.52-17.96-94.496-12.363-160.689 14.978-37.281 15.177-77.868 36.7-122.179 64.353-28.479 17.776-58.515 38.105-90.379 61.083-35.371 25.505-72.974 54.283-113.267 86.42-47.077 37.655-72.813 57.461-93.594 73.083l-2.921 2.206c-6.258 4.725-12.123 9.163-18.022 13.721-20.216 15.604-40.115 33.775-64.025 55.04-18.066 15.913-37.856 33.724-64.094 52.723-1.803 1.26-4.366 2.934-8.149 4.349-8.464 3.567-22.473 2.257-30.78-5.424-8.175-6.617-11.852-18.909-10.355-27.596.513-3.726 1.472-6.446 2.237-8.416 3.789-8.805 6.344-12.099 9.363-17.042 7.316-11.383 15.113-22.3 23.558-33.791 4.158-5.643 8.251-11.16 12.266-16.558 49.048-65.605 86.372-115.977 115.308-157.178 39.868-56.624 64.369-95.264 84.196-128.135a1587.419 1587.419 0 0 0 15.708-26.648c4.257-7.402 8.353-14.663 12.157-21.816 2.629-4.952 5.448-10.517 6.923-14.364l38.562 31.83c-48.733 31.897-109.917 75.892-156.178 112.023-41.197 31.331-117.743 101.608-173.618 157.604-21.226 21.056-50.382 49.121-84.765 82.335-22.776 21.982-47.872 46.213-74.675 71.947-8.721 8.228-17.325 16.466-30.1 24.855-4.212 2.636-8.886 5.436-15.984 7.74-6.041 1.899-15.048 3.515-25.15.343-9.6-2.584-19.49-11.992-22.873-20.167-3.558-7.784-4.148-14.029-4.373-19.413-.12-13.695 2.256-22.271 4.295-31.013 24.365-81.527 50.76-131.736 69.599-175.864 13.476-30.005 24.883-54.926 35.272-77.719 7.817-17.139 15.085-33.081 22.273-49.001 10.418-23.096 21.995-48.774 33.567-75.807 9.538-22.474 19.669-46.537 26.705-69.124 1.766-5.636 3.366-12.616 3.366-14.06-.001-.018-.02.077-.02.542.001.24.006.57.05 1.139.057.598.093 1.3.465 3.058l18.772 21.961a13.662 13.662 0 0 0-2.161-.627c-2.776-.497-5.735-.288-11.587 2.702-9.903 5.112-21.869 16.94-32.057 29.768-28.679 36.565-50.334 80.456-67.575 116.387a1681.563 1681.563 0 0 0-9.622 19.757c-24.532 51.095-46.812 103.802-71.419 156.85-9.348 19.897-18.754 39.747-30.83 60.215-4.424 7.362-9.102 14.79-15.635 22.801-5.101 5.917-10.659 12.817-22.77 19.147l-5.39 2.638c-14.941 7.537-32.152 1.711-39.689-13.23l-5.274-10.779c-7.51-14.887-1.705-32.037 13.182-39.548l5.389-2.638c-1.732.899-2.193 1.34-2.466 1.546-.24.203-.173.174-.012.027.343-.305 1.07-1.069 1.846-2.001 2.816-3.362 6.257-8.559 9.463-13.92 9.672-16.277 18.709-35.069 27.495-53.797 10.956-23.483 21.6-47.548 32.385-71.644 13.106-29.313 26.517-58.182 40.313-85.439 23.037-45.577 47.254-86.699 71.751-117.872 7.711-9.826 15.305-18.497 22.638-25.908 29.85-30.859 56.05-37.126 57.684-32.43 2.159 4.67-15.207 17.53-35.737 50.193-5.11 7.952-10.534 17.015-16.183 27.15-17.955 32.124-37.107 73.436-56.907 119.171-11.857 27.337-23.979 56.25-36.547 85.678-10.356 24.207-20.633 48.549-31.525 72.96-8.82 19.588-17.676 39.112-29.047 59.083-3.927 6.752-8.001 13.495-13.839 20.855-3.906 4.351-5.938 8.508-17.05 14.868l-5.343 2.726 11.121-33.363 5.453 10.689-33.496-11.166 5.345-2.727c-.668.456 2.144-1.693 4.574-4.912 3.417-4.305 7.08-10.092 10.545-16.127 9.731-17.082 18.614-36.373 27.271-55.663 23.062-51.879 44.767-105.584 69.202-158.552 5.63-12.223 11.404-24.425 17.39-36.579 18.951-38.025 38.832-75.926 67.079-111.862 13.273-16.2 27.731-32.717 51.062-45.328 15.94-9.036 42.212-13.354 62.695-4.62 7.329 2.896 16.061 13.04 17.73 20.742.9 4.423.809 6.1.879 8.022a53.239 53.239 0 0 1-.148 4.596c-1.211 12.453-3.579 19.269-5.841 27.173-8.511 27.17-18.68 51.008-28.954 75.249-29.773 69.053-61.773 136.01-92.405 203.315-11.406 25.029-22.658 50.037-33.407 75.077-12.958 30.499-26.275 62.122-34.04 90.717-1.714 6.368-2.816 13.398-2.66 15.135-.054.291.306-.374-1.17-3.62-1.161-3.19-7.054-8.755-11.426-9.781-5.185-1.617-8.583-.57-9.136-.418-.747.275.768-.31 2.507-1.452 5.819-3.691 13.885-10.727 21.301-17.824 58.016-55.408 115.379-112.064 174.239-167.741a4782.5 4782.5 0 0 1 33.346-31.254C355.541 206.174 451.88 125.182 525.51 75.078a1178.127 1178.127 0 0 1 27.702-18.563c32.606-20.981 67.594 7.862 53.084 43.818-9.104 20.937-16.954 32.247-24.926 45.317-19.219 30.285-36.414 54.367-52.079 76.372-18.079 25.277-34.239 47.379-50.143 70.039l-5.284 7.529a29996.05 29996.05 0 0 1-28.979 41.242c-22.525 32.05-51.518 72.791-83.067 117.933-10.997 15.835-22.771 32.657-32.888 48.637a168.691 168.691 0 0 0-3.182 5.26 53.67 53.67 0 0 0-1.085 1.964c-.123.237-.209.414-.226.452-.014.03.037-.055.24-.563.246-.659.939-2.346 1.381-5.482 1.381-7.186-1.996-19.388-9.881-25.732-3.55-3.182-9.452-6.09-14.899-6.807-5.546-.761-9.754-.097-14.007 1.408-3.212 1.197-4.844 2.368-5.476 2.789 45.495-32.709 93.75-74.788 140.602-112.909 2.098-1.721 4.204-3.447 6.345-5.198 51.665-42.297 111.947-90.154 171.766-133.515a2387.37 2387.37 0 0 1 38.843-27.607c74.887-52.554 146.678-93.074 187.451-113.036 11.901-5.975 24.329-11.771 37.193-17.176 57.584-23.453 130.884-46.305 202.825-17.436 6.84 2.657 18.12 9.951 23.11 22.043 5.34 13.47 3.43 22.245 2.34 29.186-3.86 17.541-10.26 28.228-16.33 39.078-2.99 5.135-6.06 9.994-9.15 14.683-33.3 48.92-66.91 85.933-90.363 116.786-10.445 13.464-19.061 25.316-25.389 35.12-3.436 5.318-6.653 10.498-9.522 15.496-3.573 6.217-6.68 12.362-8.392 17.174-1.442 3.674-1.306 6.539-1.367 4.664-.095-.832-.618-2.606-1.773-4.18-1.124-1.594-2.637-2.631-3.302-2.932-1.723-.553 2.056.705 7.198.35 12.341-.521 29.959-4.67 48.787-10.331 7.722-2.325 15.823-4.957 24.323-7.884 37.88-13.046 83.15-29.333 140.59-51.115 81.56-30.989 139.75-52.358 189.48-69.882 70.04-24.595 122.91-42.727 202-69.858 59.7-20.357 122.37-38.756 180.42-52.025 1.31-.294 2.73-.58 4.59-.82 2.05-.174 3.55-.636 9.09-.006 11.53 1.653 21.55 12.218 22.51 23.823.06.701.11 1.684.11 2.548-.18 7.127-1.15 9.248-1.87 12.167-7.88 22.896-16.23 33.897-24.3 47.751-4.08 6.624-8.14 13.012-12.08 19.135-18.74 29.216-40.16 61.998-58.12 96.747a407.713 407.713 0 0 0-4.53 9.074c-8.59 17.761-16.16 36.755-17.89 52.08-.67 5.859-.23 10.834.77 13.767 1.06 2.965 1.94 4.184 4.53 6.081 3.87 2.893 12.95 5.214 23.02 5.56 9.16.397 18.86-.282 28.28-1.381 26.24-3.201 50.36-8.987 72.12-14.688 9.23-2.452 18.12-4.99 26.7-7.592 10.55-3.702 21.05-7.576 31.57-11.596 21.15-8.092 42.6-16.506 63.73-24.901 5.01-2.269 10.4-4.727 15.88-7.236 27.84-12.732 61.87-28.477 104.56-46.944 67.57-29.241 127.54-53.144 190.89-78.429 38.25-15.273 77.67-31.049 120.68-48.869l-.35.148c.01-.003.02-.006.02-.009.07-.031.28-.119.35-.148.01-.004.02-.007.02-.01l-1.54.705c.01-.002.01-.003.01-.005.27-.134 1.08-.51 1.36-.627 1.83-.778 3.68-1.559 5.52-2.345l-12.98 32.274c-1.55-3.653-3.12-7.332-4.7-11.039l32.27 12.979-5.52 2.362c-.24.105-.99.399-1.24.49 0 .002-.01.003-.01.004l1.06-.411c-5.3 2.218-10.64 4.466-16.04 6.748-39.8 16.812-84.93 36.375-129.7 55.716-66.49 28.731-132.29 56.95-178.6 75.133-17.3 6.795-32.65 11.885-47.72 16.838l-.21.061c-1.03.338-2.06.679-3.08 1.016-40.54 16.651-81.29 33.196-122.22 49.154-43.67 16.705-87.51 32.772-136.97 41.004-23.02 2.159-45.85 9.476-80.33-9.192-19.22-11.508-25.81-37.545-24.62-51.688.03-2.611.18-5.118.4-7.546 1.11-11.845 3.79-22.073 6.81-31.67 4.02-12.607 8.82-24.091 13.79-34.988 17.42-37.579 36.36-68.53 48.66-90.84 5.39-9.712 13.86-23.807 23.57-40.541 6.74-11.637 16.2-28.535 18.15-36.105.18-.647-.14-.59-.23 1.981-.09 2.436.67 8.38 4.85 13.839 3.57 5.237 11.71 9.178 15.41 9.489 3.93.577 4.77.094 4.55.252-25.67 6.115-53.13 13.243-80.91 21.106-57.8 16.298-116.96 35.961-164.88 53.443-28.02 10.205-55.08 18.64-82.92 27.565-25.97 8.329-52.62 17.102-81.24 28.221-14.33 5.569-29.69 11.915-46.1 18.723-14.44 5.992-29.71 12.355-45.79 18.844-14.94 6.017-48.62 18.416-92.03 34.135-26.83 9.706-57.4 20.656-89.62 31.962a4765.67 4765.67 0 0 1-22.43 8.329c-26.226 9.407-59.96.626-89.45-7.683-5.788-1.865-11.62-3.526-16.585-7.106-2.16-1.507-3.581-4.219-3.506-6.556-.056-2.283.381-4.439.834-6.581.467-2.139 1.135-4.235 1.898-6.289 2.61-6.924 6.174-13.446 9.919-19.821 10.852-18.158 23.4-35.241 35.922-52.286 8.633-11.686 17.395-23.309 26.114-34.92 11.184-14.993 20.764-28.072 28.134-38.551a813.538 813.538 0 0 0 14.08-20.659c4.91-7.468 9.87-15.161 15.78-24.954 1.29-2.154 2.63-4.408 4-6.786 2.95-5.086 6.02-10.639 8.68-15.98 2.76-5.493 4.99-10.782 6.44-14.997 1.09-3.183 1.79-5.751 2.27-8.01.1-.486.2-.958.28-1.42.52-2.993.74-5.633.39-8.566-.22-1.793-.67-3.54-1.51-5.353-.15-.315-.3-.63-.48-.946-1.57-2.769-4.09-5.844-10.13-8.323-1.57-.64-3.26-1.292-5.07-1.95-37.96-14.28-86.661-10.015-130.812 3.376-16.508 4.897-32.614 10.885-48.027 17.396-30.706 12.992-58.647 27.973-82.023 41.581-36.565 21.144-85.903 53.706-134.385 89.836a2100.326 2100.326 0 0 0-11.306 8.45c-36.397 27.379-71.999 56.013-102.145 81.079-29.563 24.564-59.752 50.863-88.868 76.587l-.748.66c-34.705 30.633-67.839 60.41-97.288 84.8-6.011 4.969-13.743 10.787-23.67 17.955-2.28 1.644-4.686 3.366-7.192 5.14-17.456 13.19-39.273-7.183-27.133-25.385 3.774-5.298 7.912-10.977 12.412-17.144a2806.334 2806.334 0 0 1 15.987-23.908c21.943-32.463 44.15-64.616 66.269-96.783.894-1.459 1.819-2.968 2.745-4.482l.042-.073c10.487-17.156 22.859-37.546 38.095-61.549 15.04-23.701 32.896-50.904 54.437-82.011 11.005-15.911 18.359-25.602 24.948-34.321 6.47-8.587 12.246-16.251 19.621-28.025a363.198 363.198 0 0 0 5.03-8.294c6.628-11.341 14.447-25.51 18.726-37.262.369-1.075.659-2.065.777-2.686.234-.884-.139-1.292-.389 1.55-.076 2.152.07 4.727 1.67 8.374 1.511 3.593 5.126 7.6 8.444 9.494 6.956 4.32 14.577 2.91 15.975 2.405 1.596-.486.517.007-.653.941-14.514 10.215-29.471 20.87-44.682 31.299-1.803 1.236-3.74 2.567-5.754 3.962-19.11 13.186-47.01 33.332-74.927 53.438-79.333 64.115-154.045 134.5-228.278 206.131-45.224 43.638-90.314 87.782-136.299 131.344-8.489 7.884-16.415 15.484-29.206 23.795-3.552 2.11-6.592 4.275-14.359 6.867a40.91 40.91 0 0 1-4.157 1.057c-1.903.311-3.445.802-8.568.664-8.17-.454-20.424-7.481-24.716-14.447-2.066-3.397-2.548-4.953-3.123-6.446a35.855 35.855 0 0 1-1.051-3.466 39.856 39.856 0 0 1-.841-4.424 49.354 49.354 0 0 1-.42-5.563c.14-14.074 2.448-20.754 4.388-28.877C30.484 432.699 57.357 379.796 83.1 323.847c11.353-24.057 22.897-47.962 34.478-71.783 22.002-45.27 44.633-88.744 64.625-127.523 13-25.325 25.106-48.793 33.94-69.113l.565-1.32c2.913-6.835 5.387-13.436 6.589-18.318.528-2.06.705-3.652.9-4.156.146-.252.297-.32.634-.236.32.08.848.185 1.088.044-24.107-14.43-45.101-4.06-46.617-9.156-.983-1.935 1.886-6.522 10.721-11.703 8.529-4.97 25.449-10.508 46.33-4.391 7.848 2.512 14.309 10.224 16.522 17.066 2.034 5.836 2.288 10.7 2.364 14.971-.006 9.841-1.435 18.003-3.106 26.618a199.98 199.98 0 0 1-.331 1.628c-5.238 24.741-13.567 50.552-23.357 78.157-15.042 42.123-33.931 87.766-54.427 133.765-10.786 24.196-21.64 48.307-32.404 72.352-24.09 54.717-50.906 112.067-65.63 163.285-.688 2.695-1.268 5.288-1.641 7.421a38.216 38.216 0 0 0-.382 2.634c-.068.607-.04.995-.04.276-.009-.233 0-.644-.156-1.857a25.568 25.568 0 0 0-.56-2.895 30.402 30.402 0 0 0-.9-2.952c-.545-1.39-.958-2.855-3.183-6.519l-29.074-16.995c-5.254-.131-6.295.333-7.776.551-1.289.26-2.046.482-2.643.664-2.07.668-2.27.877-2.359.895-.03.013.3-.172.738-.454 4.219-2.672 11.885-9.305 18.561-15.731 19.695-18.84 39.342-37.807 59.026-56.814a9134.213 9134.213 0 0 1 15.319-15.14c37.994-37.46 72.715-73.041 108.257-108.131a3289.151 3289.151 0 0 1 24.685-24.135Z"/></svg>