<svg width="1268" height="69" viewBox="0 0 1268 69" fill="none" xmlns="http://www.w3.org/2000/svg">
<g clip-path="url(#clip0_20_468)">
<rect x="518.742" width="198.304" height="68.2901" fill="#202020"/>
<path d="M529.795 -72.23V139.207" stroke="#262626" stroke-width="1.05062"/>
<path d="M547.415 -72.23V139.207" stroke="#262626" stroke-width="1.05062"/>
<path d="M565.035 -72.23V139.207" stroke="#262626" stroke-width="1.05062"/>
<path d="M582.654 -72.23V139.207" stroke="#262626" stroke-width="1.05062"/>
<path d="M600.274 -72.23V139.207" stroke="#262626" stroke-width="1.05062"/>
<path d="M617.894 -72.23V139.207" stroke="#262626" stroke-width="1.05062"/>
<path d="M635.513 -72.23V139.207" stroke="#262626" stroke-width="1.05062"/>
<path d="M653.133 -72.23V139.207" stroke="#262626" stroke-width="1.05062"/>
<path d="M670.753 -72.23V139.207" stroke="#262626" stroke-width="1.05062"/>
<path d="M688.373 -72.23V139.207" stroke="#262626" stroke-width="1.05062"/>
<path d="M705.992 -72.23V139.207" stroke="#262626" stroke-width="1.05062"/>
<path d="M512.175 15.8682H723.612" stroke="#262626" stroke-width="1.05062"/>
<path d="M512.175 33.4885H723.612" stroke="#262626" stroke-width="1.05062"/>
<path d="M512.175 51.1079H723.612" stroke="#262626" stroke-width="1.05062"/>
<path d="M512.175 68.7275H723.612" stroke="#262626" stroke-width="1.05062"/>
</g>
<g clip-path="url(#clip1_20_468)">
<rect x="706.539" width="198.304" height="68.2901" fill="#202020"/>
<path d="M717.593 -72.23V139.207" stroke="#262626" stroke-width="1.05062"/>
<path d="M735.213 -72.23V139.207" stroke="#262626" stroke-width="1.05062"/>
<path d="M752.832 -72.23V139.207" stroke="#262626" stroke-width="1.05062"/>
<path d="M770.452 -72.23V139.207" stroke="#262626" stroke-width="1.05062"/>
<path d="M788.072 -72.23V139.207" stroke="#262626" stroke-width="1.05062"/>
<path d="M805.691 -72.23V139.207" stroke="#262626" stroke-width="1.05062"/>
<path d="M823.311 -72.23V139.207" stroke="#262626" stroke-width="1.05062"/>
<path d="M840.931 -72.23V139.207" stroke="#262626" stroke-width="1.05062"/>
<path d="M858.551 -72.23V139.207" stroke="#262626" stroke-width="1.05062"/>
<path d="M876.17 -72.23V139.207" stroke="#262626" stroke-width="1.05062"/>
<path d="M893.79 -72.23V139.207" stroke="#262626" stroke-width="1.05062"/>
<path d="M699.973 15.8682H911.41" stroke="#262626" stroke-width="1.05062"/>
<path d="M699.973 33.4885H911.41" stroke="#262626" stroke-width="1.05062"/>
<path d="M699.973 51.1079H911.41" stroke="#262626" stroke-width="1.05062"/>
<path d="M699.973 68.7275H911.41" stroke="#262626" stroke-width="1.05062"/>
</g>
<g clip-path="url(#clip2_20_468)">
<rect x="885.144" width="198.304" height="68.2901" fill="#202020"/>
<path d="M896.198 -72.23V139.207" stroke="#262626" stroke-width="1.05062"/>
<path d="M913.817 -72.23V139.207" stroke="#262626" stroke-width="1.05062"/>
<path d="M931.437 -72.23V139.207" stroke="#262626" stroke-width="1.05062"/>
<path d="M949.057 -72.23V139.207" stroke="#262626" stroke-width="1.05062"/>
<path d="M966.676 -72.23V139.207" stroke="#262626" stroke-width="1.05062"/>
<path d="M984.296 -72.23V139.207" stroke="#262626" stroke-width="1.05062"/>
<path d="M1001.92 -72.23V139.207" stroke="#262626" stroke-width="1.05062"/>
<path d="M1019.54 -72.23V139.207" stroke="#262626" stroke-width="1.05062"/>
<path d="M1037.16 -72.23V139.207" stroke="#262626" stroke-width="1.05062"/>
<path d="M1054.77 -72.23V139.207" stroke="#262626" stroke-width="1.05062"/>
<path d="M1072.39 -72.23V139.207" stroke="#262626" stroke-width="1.05062"/>
<path d="M878.578 15.8682H1090.01" stroke="#262626" stroke-width="1.05062"/>
<path d="M878.578 33.4885H1090.01" stroke="#262626" stroke-width="1.05062"/>
<path d="M878.578 51.1079H1090.01" stroke="#262626" stroke-width="1.05062"/>
<path d="M878.578 68.7275H1090.01" stroke="#262626" stroke-width="1.05062"/>
</g>
<g clip-path="url(#clip3_20_468)">
<rect x="1069" width="198.304" height="68.2901" fill="#202020"/>
<path d="M1080.06 -72.23V139.207" stroke="#262626" stroke-width="1.05062"/>
<path d="M1097.68 -72.23V139.207" stroke="#262626" stroke-width="1.05062"/>
<path d="M1115.29 -72.23V139.207" stroke="#262626" stroke-width="1.05062"/>
<path d="M1132.91 -72.23V139.207" stroke="#262626" stroke-width="1.05062"/>
<path d="M1150.53 -72.23V139.207" stroke="#262626" stroke-width="1.05062"/>
<path d="M1168.15 -72.23V139.207" stroke="#262626" stroke-width="1.05062"/>
<path d="M1185.77 -72.23V139.207" stroke="#262626" stroke-width="1.05062"/>
<path d="M1203.39 -72.23V139.207" stroke="#262626" stroke-width="1.05062"/>
<path d="M1221.01 -72.23V139.207" stroke="#262626" stroke-width="1.05062"/>
<path d="M1238.63 -72.23V139.207" stroke="#262626" stroke-width="1.05062"/>
<path d="M1256.25 -72.23V139.207" stroke="#262626" stroke-width="1.05062"/>
<path d="M1062.44 15.8682H1273.87" stroke="#262626" stroke-width="1.05062"/>
<path d="M1062.44 33.4885H1273.87" stroke="#262626" stroke-width="1.05062"/>
<path d="M1062.44 51.1079H1273.87" stroke="#262626" stroke-width="1.05062"/>
<path d="M1062.44 68.7275H1273.87" stroke="#262626" stroke-width="1.05062"/>
</g>
<g clip-path="url(#clip4_20_468)">
<rect x="-34.145" width="198.304" height="68.2901" fill="#202020"/>
<path d="M12.1478 -72.23V139.207" stroke="#262626" stroke-width="1.05062"/>
<path d="M29.7675 -72.23V139.207" stroke="#262626" stroke-width="1.05062"/>
<path d="M47.3872 -72.23V139.207" stroke="#262626" stroke-width="1.05062"/>
<path d="M65.0069 -72.23V139.207" stroke="#262626" stroke-width="1.05062"/>
<path d="M82.6266 -72.23V139.207" stroke="#262626" stroke-width="1.05062"/>
<path d="M100.246 -72.23V139.207" stroke="#262626" stroke-width="1.05062"/>
<path d="M117.866 -72.23V139.207" stroke="#262626" stroke-width="1.05062"/>
<path d="M135.486 -72.23V139.207" stroke="#262626" stroke-width="1.05062"/>
<path d="M153.105 -72.23V139.207" stroke="#262626" stroke-width="1.05062"/>
<path d="M-40.7113 15.8682H170.725" stroke="#262626" stroke-width="1.05062"/>
<path d="M-40.7113 33.4885H170.725" stroke="#262626" stroke-width="1.05062"/>
<path d="M-40.7113 51.1079H170.725" stroke="#262626" stroke-width="1.05062"/>
<path d="M-40.7113 68.7275H170.725" stroke="#262626" stroke-width="1.05062"/>
</g>
<g clip-path="url(#clip5_20_468)">
<rect x="153.653" width="198.304" height="68.2901" fill="#202020"/>
<path d="M164.706 -72.23V139.207" stroke="#262626" stroke-width="1.05062"/>
<path d="M182.326 -72.23V139.207" stroke="#262626" stroke-width="1.05062"/>
<path d="M199.945 -72.23V139.207" stroke="#262626" stroke-width="1.05062"/>
<path d="M217.565 -72.23V139.207" stroke="#262626" stroke-width="1.05062"/>
<path d="M235.185 -72.23V139.207" stroke="#262626" stroke-width="1.05062"/>
<path d="M252.805 -72.23V139.207" stroke="#262626" stroke-width="1.05062"/>
<path d="M270.424 -72.23V139.207" stroke="#262626" stroke-width="1.05062"/>
<path d="M288.044 -72.23V139.207" stroke="#262626" stroke-width="1.05062"/>
<path d="M305.664 -72.23V139.207" stroke="#262626" stroke-width="1.05062"/>
<path d="M323.283 -72.23V139.207" stroke="#262626" stroke-width="1.05062"/>
<path d="M340.903 -72.23V139.207" stroke="#262626" stroke-width="1.05062"/>
<path d="M147.086 15.8682H358.523" stroke="#262626" stroke-width="1.05062"/>
<path d="M147.086 33.4885H358.523" stroke="#262626" stroke-width="1.05062"/>
<path d="M147.086 51.1079H358.523" stroke="#262626" stroke-width="1.05062"/>
<path d="M147.086 68.7275H358.523" stroke="#262626" stroke-width="1.05062"/>
</g>
<g clip-path="url(#clip6_20_468)">
<rect x="332.257" width="198.304" height="68.2901" fill="#202020"/>
<path d="M343.311 -72.23V139.207" stroke="#262626" stroke-width="1.05062"/>
<path d="M360.93 -72.23V139.207" stroke="#262626" stroke-width="1.05062"/>
<path d="M378.55 -72.23V139.207" stroke="#262626" stroke-width="1.05062"/>
<path d="M396.17 -72.23V139.207" stroke="#262626" stroke-width="1.05062"/>
<path d="M413.79 -72.23V139.207" stroke="#262626" stroke-width="1.05062"/>
<path d="M431.409 -72.23V139.207" stroke="#262626" stroke-width="1.05062"/>
<path d="M449.029 -72.23V139.207" stroke="#262626" stroke-width="1.05062"/>
<path d="M466.649 -72.23V139.207" stroke="#262626" stroke-width="1.05062"/>
<path d="M484.268 -72.23V139.207" stroke="#262626" stroke-width="1.05062"/>
<path d="M501.888 -72.23V139.207" stroke="#262626" stroke-width="1.05062"/>
<path d="M519.508 -72.23V139.207" stroke="#262626" stroke-width="1.05062"/>
<path d="M325.691 15.8682H537.128" stroke="#262626" stroke-width="1.05062"/>
<path d="M325.691 33.4885H537.128" stroke="#262626" stroke-width="1.05062"/>
<path d="M325.691 51.1079H537.128" stroke="#262626" stroke-width="1.05062"/>
<path d="M325.691 68.7275H537.128" stroke="#262626" stroke-width="1.05062"/>
</g>
<defs>
<clipPath id="clip0_20_468">
<rect x="518.742" width="198.304" height="68.2901" rx="6.56635" fill="white"/>
</clipPath>
<clipPath id="clip1_20_468">
<rect x="706.539" width="198.304" height="68.2901" rx="6.56635" fill="white"/>
</clipPath>
<clipPath id="clip2_20_468">
<rect x="885.144" width="198.304" height="68.2901" rx="6.56635" fill="white"/>
</clipPath>
<clipPath id="clip3_20_468">
<rect x="1069" width="198.304" height="68.2901" rx="6.56635" fill="white"/>
</clipPath>
<clipPath id="clip4_20_468">
<rect width="164.159" height="68.2901" rx="6.56635" fill="white"/>
</clipPath>
<clipPath id="clip5_20_468">
<rect x="153.653" width="198.304" height="68.2901" rx="6.56635" fill="white"/>
</clipPath>
<clipPath id="clip6_20_468">
<rect x="332.257" width="198.304" height="68.2901" rx="6.56635" fill="white"/>
</clipPath>
</defs>
</svg>
