<svg width="482" height="96" viewBox="0 0 482 96" fill="none" xmlns="http://www.w3.org/2000/svg">
<path d="M14.0663 89.8681C14.0663 90.6723 13.8977 91.3089 13.5604 91.778C13.1556 92.1801 12.5821 92.3812 11.84 92.3812C10.4233 92.3812 9.07397 92.4147 7.79215 92.4817C6.44286 92.4817 5.05984 92.4482 3.64308 92.3812C2.42872 92.3141 1.55168 91.8785 1.01197 91.0743C0.404787 90.2702 0.101197 89.2314 0.101197 87.9581C0.0337322 86.3497 0.0337322 84.5403 0.101197 82.5298C0.101197 80.5194 0.101197 78.7099 0.101197 77.1016C0.101197 75.9623 0.101197 73.5162 0.101197 69.7634C0.101197 66.0105 0.101197 61.9225 0.101197 57.4995C0.0337322 52.2052 0 47.2126 0 42.5215C0 37.8304 0 35.2503 0 34.7812C0 32.5696 0 30.3581 0 28.1466C0 26.0021 0 23.8241 0 21.6126C0 21.4785 0 21.3445 0 21.2105C0 21.0764 0 20.9424 0 20.8084C0.0674645 19.8702 0.30359 19.2 0.708377 18.7979C1.0457 18.4628 1.72034 18.2618 2.73231 18.1948C4.0816 18.1277 5.56582 18.0272 7.18497 17.8932C8.73665 17.7592 10.2209 17.8262 11.6376 18.0942C12.5147 18.2283 13.1218 18.4628 13.4592 18.7979C13.729 19.066 13.864 19.6691 13.864 20.6073C13.9314 22.0817 13.9651 23.556 13.9651 25.0304C13.9651 26.5717 13.9989 28.0796 14.0663 29.5539C14.1338 31.4304 14.1675 33.7424 14.1675 36.4901C14.235 39.3047 14.235 42.1864 14.1675 45.1351C14.1675 49.5581 14.1675 53.6461 14.1675 57.399C14.1001 61.1518 14.0663 63.3298 14.0663 63.933C14.6735 63.799 15.2132 63.6984 15.6855 63.6314C16.1577 63.5644 16.63 63.4974 17.1022 63.4304C18.5865 62.9613 20.0707 62.5257 21.5549 62.1236C23.0391 61.6545 24.5233 61.1853 26.0076 60.7162C26.7497 60.4482 27.5255 60.1131 28.3351 59.711C29.0772 59.3089 29.8193 58.9403 30.5614 58.6052C30.8987 58.4042 31.1686 58.2031 31.371 58.0021C31.5734 57.8681 31.6746 57.801 31.6746 57.801C31.742 56.1257 31.8095 54.0482 31.877 51.5686C31.9444 49.022 32.0119 46.911 32.0794 45.2356C32.2143 41.2817 32.248 37.3948 32.1806 33.5749C32.1131 29.755 32.1468 25.9351 32.2818 22.1152C32.2818 21.7801 32.2818 21.4785 32.2818 21.2105C32.2143 20.8754 32.2143 20.5738 32.2818 20.3058C32.2818 19.7026 32.383 19.2335 32.5853 18.8984C32.8552 18.6304 33.2937 18.4293 33.9009 18.2953C35.5875 18.0272 37.4091 17.8597 39.3655 17.7927C39.9052 17.7927 40.445 17.7927 40.9847 17.7927C42.334 17.7927 43.6495 17.8597 44.9313 17.9937C45.5385 18.0607 45.9433 18.2283 46.1457 18.4963C46.3481 18.7644 46.4493 19.2335 46.4493 19.9037C46.5168 21.311 46.5505 22.7183 46.5505 24.1257C46.5505 25.2649 46.5505 26.3707 46.5505 27.4429C46.5505 27.778 46.5505 28.1131 46.5505 28.4482C46.5505 33.4073 46.5505 38.4 46.5505 43.4262C46.5505 48.3853 46.5168 53.378 46.4493 58.4042C46.3818 63.3634 46.3818 68.4901 46.4493 73.7843C46.5168 79.0115 46.483 84.1382 46.3481 89.1644C46.3481 89.4995 46.3818 89.801 46.4493 90.0691C46.4493 90.4042 46.4493 90.7393 46.4493 91.0743C46.4493 91.6105 46.2132 91.9456 45.7409 92.0796C45.3361 92.2806 44.8976 92.3812 44.4254 92.3812C43.6158 92.4482 42.8399 92.4817 42.0978 92.4817C41.828 92.4817 41.5581 92.4817 41.2883 92.4817C40.2763 92.4817 39.2306 92.4482 38.1512 92.3812C37.4091 92.3812 36.6332 92.3812 35.8236 92.3812C35.0141 92.3141 34.2382 92.2136 33.4961 92.0796C33.0913 92.0796 32.754 91.9456 32.4841 91.6775C32.2143 91.4764 32.0456 91.2084 31.9782 90.8733C31.8432 90.4712 31.7758 90.0691 31.7758 89.667C31.7758 89.1979 31.7758 88.7623 31.7758 88.3602C31.7758 87.288 31.7758 86.0147 31.7758 84.5403C31.7758 83.066 31.7758 81.5916 31.7758 80.1173C31.7758 77.8387 31.7758 75.7948 31.7758 73.9853C31.7083 72.1759 31.6746 71.3047 31.6746 71.3717C29.6506 72.7791 27.3568 73.8178 24.7932 74.488C22.297 75.2251 19.8346 75.8283 17.4058 76.2974C16.8661 76.4314 16.2927 76.5319 15.6855 76.599C15.1458 76.666 14.5723 76.7665 13.9651 76.9005C13.9651 77.1686 13.9651 78.911 13.9651 82.1278C14.0326 85.4115 14.0663 87.9916 14.0663 89.8681Z" fill="#2F2F2F"/>
<path d="M65.11 76.9005C65.0425 77.4367 64.9413 79.1456 64.8064 82.0272C64.6714 84.9089 64.5703 87.0199 64.5028 88.3602C64.5028 88.5613 64.4691 88.7623 64.4016 88.9634C64.4016 89.1644 64.3679 89.3654 64.3004 89.5665C64.098 90.4377 63.8281 91.1414 63.4908 91.6775C63.221 92.1466 62.6138 92.4147 61.6693 92.4817C60.4549 92.5487 59.0382 92.5487 57.419 92.4817C55.7999 92.4817 54.3831 92.4482 53.1688 92.3812C52.3592 92.3141 51.8195 92.1466 51.5496 91.8785C51.2798 91.6105 51.0774 91.0743 50.9424 90.2702C50.875 89.399 50.8412 88.5278 50.8412 87.6565C50.7738 87.2545 50.74 86.8524 50.74 86.4503C50.74 85.9812 50.7738 85.512 50.8412 85.0429C50.9087 83.9037 50.9424 82.7644 50.9424 81.6251C50.9424 80.4188 50.9762 79.2796 51.0436 78.2073C51.1786 77.2021 51.246 76.2304 51.246 75.2921C51.3135 74.2869 51.3809 73.3152 51.4484 72.377C51.9207 66.0105 52.6965 59.7445 53.7759 53.5791C54.8554 47.4136 56.542 41.3487 58.8358 35.3843C59.7128 33.3068 60.6573 31.2293 61.6693 29.1518C62.6812 27.1414 63.9293 25.2314 65.4136 23.422C65.8858 22.8188 66.4255 22.2157 67.0327 21.6126C67.5724 21.0094 68.1459 20.4398 68.7531 19.9037C70.5746 18.4293 72.6323 17.6921 74.9261 17.6921C75.1959 17.6921 75.4658 17.7257 75.7356 17.7927C78.3667 17.9267 80.6268 18.8984 82.5158 20.7079C84.5397 22.5843 86.2264 24.6953 87.5756 27.0408C88.8575 29.3194 89.9369 31.7319 90.8139 34.2785C91.8934 37.2942 92.8379 40.3435 93.6474 43.4262C94.5245 46.5089 95.1654 49.6251 95.5702 52.7749C95.7726 53.9141 95.9412 55.3885 96.0762 57.1979C96.2111 59.0073 96.3798 60.9508 96.5821 63.0283C96.852 66.8482 97.0881 70.7686 97.2905 74.7895C97.4929 78.7435 97.6278 81.6251 97.6953 83.4346C97.6953 84.3728 97.6953 85.2775 97.6953 86.1487C97.7628 87.0869 97.7965 88.0251 97.7965 88.9634C97.7965 89.2984 97.7628 89.6335 97.6953 89.9686C97.6953 90.3037 97.6616 90.6387 97.5941 90.9738C97.5941 91.3759 97.4592 91.6775 97.1893 91.8785C96.9869 92.1466 96.7171 92.3141 96.3798 92.3812C94.4233 92.5822 92.6017 92.6827 90.9151 92.6827C90.7802 92.6827 90.6453 92.6827 90.5103 92.6827C88.9587 92.6827 87.407 92.6157 85.8553 92.4817C85.7204 92.4817 85.5517 92.3812 85.3493 92.1801C85.1469 92.0461 84.9783 91.8785 84.8433 91.6775C84.7759 91.4764 84.7084 91.2419 84.6409 90.9738C84.5735 90.7058 84.506 90.4712 84.4385 90.2702C84.1687 88.1257 84 85.244 83.9326 81.6251C83.8651 78.0063 83.6627 74.7895 83.3254 71.9749C79.8847 73.2482 76.9163 74.2534 74.4201 74.9906C71.8564 75.7278 68.7531 76.3644 65.11 76.9005ZM82.9206 59.5099C82.6507 55.8911 82.2797 52.4398 81.8074 49.156C81.4026 45.8052 80.728 42.555 79.7835 39.4052C79.5136 38.534 79.21 37.6628 78.8727 36.7916C78.4679 35.9874 77.962 35.2168 77.3548 34.4796C76.6801 33.6084 75.9717 33.1728 75.2296 33.1728C74.4875 33.1728 73.8466 33.6419 73.3069 34.5801C72.8347 35.2503 72.4299 35.9539 72.0925 36.6911C71.7552 37.4283 71.4179 38.199 71.0806 39.0031C70.8107 39.8073 70.5409 40.6115 70.271 41.4157C70.0686 42.2869 69.7988 43.1246 69.4614 43.9288C68.382 47.0115 67.6399 50.2618 67.2351 53.6796C66.8303 57.1644 66.3918 60.5822 65.9195 63.933C69.0904 63.5309 71.9913 62.9948 74.6225 62.3246C77.2536 61.5874 80.0196 60.6492 82.9206 59.5099Z" fill="#2F2F2F"/>
<path d="M177.58 45.4367C177.58 45.4367 177.58 45.4031 177.58 45.3361C177.58 47.2126 177.614 49.089 177.681 50.9654C177.749 52.7749 177.782 54.6178 177.782 56.4942C177.782 57.0974 177.782 57.7005 177.782 58.3037C177.782 59.644 177.782 61.0178 177.782 62.4251C177.715 64.4356 177.681 66.4126 177.681 68.356C177.681 70.9026 177.681 73.4157 177.681 75.8953C177.681 78.3749 177.681 80.8545 177.681 83.334C177.681 84.5403 177.614 85.7466 177.479 86.9529C177.411 88.0921 177.344 89.2649 177.276 90.4712C177.276 91.1414 177.175 91.5435 176.973 91.6775C176.838 91.8785 176.433 92.0126 175.758 92.0796C174.881 92.1466 174.038 92.1801 173.229 92.1801C172.419 92.1131 171.576 92.1131 170.699 92.1801C170.226 92.1801 169.383 92.1801 168.169 92.1801C166.887 92.1131 166.01 92.0796 165.538 92.0796C164.93 92.0796 164.492 91.9791 164.222 91.778C163.885 91.5099 163.649 91.0743 163.514 90.4712C163.514 90.3372 163.514 90.1696 163.514 89.9686C163.446 89.7675 163.412 89.5665 163.412 89.3654C163.48 87.8241 163.514 86.3497 163.514 84.9424C163.581 83.5351 163.615 82.0607 163.615 80.5194C163.615 80.1173 163.615 79.6817 163.615 79.2126C163.615 78.7435 163.615 78.2743 163.615 77.8052C162.468 80.0838 161.085 82.2283 159.466 84.2387C157.914 86.2492 156.126 88.0921 154.102 89.7675C153.023 90.6387 151.876 91.4094 150.662 92.0796C149.515 92.7497 148.267 93.2859 146.917 93.688C145.568 94.1571 144.185 94.3916 142.768 94.3916C142.431 94.3916 142.094 94.3916 141.756 94.3916C140.07 94.2576 138.417 93.7885 136.798 92.9843C135.718 92.5152 134.875 91.845 134.268 90.9738C133.661 90.1026 133.155 89.1309 132.75 88.0586C132.345 86.7853 132.075 85.4785 131.94 84.1382C131.805 82.7979 131.772 81.4576 131.839 80.1173C131.839 79.8492 131.839 79.5812 131.839 79.3131C131.839 78.978 131.839 78.6094 131.839 78.2073C131.637 78.4754 131.468 78.7099 131.333 78.911C131.198 79.1791 131.063 79.4136 130.928 79.6147C129.714 81.6251 128.365 83.5016 126.88 85.244C125.396 87.0534 123.71 88.6618 121.821 90.0691C121.011 90.6052 120.201 91.1079 119.392 91.577C118.515 92.1131 117.638 92.5822 116.761 92.9843C114.939 93.8555 113.118 94.2911 111.296 94.2911C109.407 94.2241 107.518 93.822 105.629 93.0848C104.482 92.6827 103.571 92.0461 102.897 91.1749C102.155 90.3037 101.581 89.2984 101.176 88.1592C100.839 87.1539 100.569 86.0817 100.367 84.9424C100.165 83.8702 100.097 82.7644 100.165 81.6251C100.232 76.867 100.232 72.0754 100.165 67.2503C100.097 64.9717 100.063 62.6932 100.063 60.4147C100.063 57.8681 100.097 55.355 100.165 52.8754C100.232 50.6639 100.266 48.4524 100.266 46.2408C100.198 44.0293 100.198 41.8178 100.266 39.6063C100.266 36.9257 100.266 34.3456 100.266 31.866C100.333 29.3864 100.367 26.8063 100.367 24.1257C100.367 23.5225 100.434 22.9194 100.569 22.3162C100.637 21.7131 100.704 21.1099 100.772 20.5068C100.839 20.0377 101.042 19.6356 101.379 19.3005C101.649 18.9654 102.054 18.7644 102.593 18.6974C103.808 18.4963 105.359 18.3958 107.248 18.3958C109.137 18.4628 110.689 18.5634 111.903 18.6974C112.443 18.7644 112.882 18.9654 113.219 19.3005C113.556 19.6356 113.792 20.0712 113.927 20.6073C113.995 20.9424 114.062 21.2775 114.13 21.6126C114.197 21.9476 114.265 22.2827 114.332 22.6178C114.602 26.6387 114.636 30.5257 114.433 34.2785C114.231 38.0984 114.062 42.0188 113.927 46.0398C113.927 47.9832 113.894 50.1948 113.826 52.6743C113.826 55.1539 113.792 57.7005 113.725 60.3141C113.657 65.0723 113.624 69.3948 113.624 73.2817C113.556 77.2356 113.556 79.3131 113.624 79.5141C115.715 78.2408 117.874 76.3309 120.1 73.7843C122.259 71.1707 123.912 68.4901 125.059 65.7424C126.408 62.5257 127.42 59.7445 128.095 57.399C128.837 55.0534 129.41 52.5738 129.815 49.9602C130.018 48.6199 130.186 47.1456 130.321 45.5372C130.456 43.9958 130.591 42.2869 130.726 40.4105C130.928 38.1319 131.097 35.8869 131.232 33.6754C131.367 31.4639 131.502 29.1853 131.637 26.8398C131.704 25.8346 131.772 24.7958 131.839 23.7236C131.907 22.7183 131.974 21.7131 132.041 20.7079C132.109 19.9037 132.311 19.334 132.649 18.999C132.986 18.6639 133.559 18.4628 134.369 18.3958C135.448 18.3958 136.865 18.3958 138.619 18.3958C140.373 18.3958 141.79 18.3958 142.87 18.3958C143.477 18.4628 144.016 18.6639 144.489 18.999C144.893 19.401 145.163 19.9037 145.298 20.5068C145.366 20.7749 145.433 21.0764 145.501 21.4115C145.568 21.6796 145.602 21.9812 145.602 22.3162C145.669 24.6618 145.703 26.9403 145.703 29.1518C145.771 31.3634 145.771 33.6419 145.703 35.9874C145.703 41.9518 145.636 47.8827 145.501 53.7801C145.366 59.7445 145.265 65.6754 145.197 71.5728C145.197 72.9801 145.197 74.555 145.197 76.2974C145.13 78.0398 145.13 79.112 145.197 79.5141C147.626 78.3749 149.852 76.2639 151.876 73.1812C153.9 70.0984 155.283 67.6859 156.025 65.9435C157.914 61.6545 159.297 57.734 160.174 54.1822C160.984 50.6304 161.692 46.4419 162.299 41.6168C162.637 38.534 162.873 35.6859 163.008 33.0723C163.143 30.5257 163.311 27.9456 163.514 25.3319C163.581 24.4607 163.581 23.7906 163.514 23.3215C163.514 22.7853 163.547 22.1152 163.615 21.311C163.682 20.3728 163.918 19.7026 164.323 19.3005C164.661 18.8984 165.301 18.5969 166.246 18.3958C167.528 18.1948 169.046 18.0942 170.8 18.0942C172.554 18.0942 174.072 18.1613 175.354 18.2953C175.826 18.3623 176.231 18.5298 176.568 18.7979C176.838 18.999 177.007 19.334 177.074 19.8031C177.209 20.2052 177.31 20.6408 177.378 21.1099C177.513 21.5791 177.58 22.0482 177.58 22.5173C177.647 24.1927 177.681 25.734 177.681 27.1414C177.681 28.5487 177.681 30.0901 177.681 31.7654C177.681 34.044 177.647 36.3225 177.58 38.601C177.58 40.8796 177.58 43.1581 177.58 45.4367Z" fill="#2F2F2F"/>
<path d="M194.723 76.9005C194.655 77.4367 194.554 79.1456 194.419 82.0272C194.284 84.9089 194.183 87.0199 194.116 88.3602C194.116 88.5613 194.082 88.7623 194.014 88.9634C194.014 89.1644 193.981 89.3654 193.913 89.5665C193.711 90.4377 193.441 91.1414 193.104 91.6775C192.834 92.1466 192.227 92.4147 191.282 92.4817C190.068 92.5487 188.651 92.5487 187.032 92.4817C185.413 92.4817 183.996 92.4482 182.782 92.3812C181.972 92.3141 181.432 92.1466 181.162 91.8785C180.893 91.6105 180.69 91.0743 180.555 90.2702C180.488 89.399 180.454 88.5278 180.454 87.6565C180.387 87.2545 180.353 86.8524 180.353 86.4503C180.353 85.9812 180.387 85.512 180.454 85.0429C180.521 83.9037 180.555 82.7644 180.555 81.6251C180.555 80.4188 180.589 79.2796 180.656 78.2073C180.791 77.2021 180.859 76.2304 180.859 75.2921C180.926 74.2869 180.994 73.3152 181.061 72.377C181.533 66.0105 182.309 59.7445 183.389 53.5791C184.468 47.4136 186.155 41.3487 188.449 35.3843C189.326 33.3068 190.27 31.2293 191.282 29.1518C192.294 27.1414 193.542 25.2314 195.026 23.422C195.499 22.8188 196.038 22.2157 196.645 21.6126C197.185 21.0094 197.759 20.4398 198.366 19.9037C200.187 18.4293 202.245 17.6921 204.539 17.6921C204.809 17.6921 205.079 17.7257 205.348 17.7927C207.98 17.9267 210.24 18.8984 212.129 20.7079C214.153 22.5843 215.839 24.6953 217.188 27.0408C218.47 29.3194 219.55 31.7319 220.427 34.2785C221.506 37.2942 222.451 40.3435 223.26 43.4262C224.137 46.5089 224.778 49.6251 225.183 52.7749C225.385 53.9141 225.554 55.3885 225.689 57.1979C225.824 59.0073 225.993 60.9508 226.195 63.0283C226.465 66.8482 226.701 70.7686 226.903 74.7895C227.106 78.7435 227.241 81.6251 227.308 83.4346C227.308 84.3728 227.308 85.2775 227.308 86.1487C227.376 87.0869 227.409 88.0251 227.409 88.9634C227.409 89.2984 227.376 89.6335 227.308 89.9686C227.308 90.3037 227.274 90.6387 227.207 90.9738C227.207 91.3759 227.072 91.6775 226.802 91.8785C226.6 92.1466 226.33 92.3141 225.993 92.3812C224.036 92.5822 222.215 92.6827 220.528 92.6827C220.393 92.6827 220.258 92.6827 220.123 92.6827C218.571 92.6827 217.02 92.6157 215.468 92.4817C215.333 92.4817 215.164 92.3812 214.962 92.1801C214.76 92.0461 214.591 91.8785 214.456 91.6775C214.389 91.4764 214.321 91.2419 214.254 90.9738C214.186 90.7058 214.119 90.4712 214.051 90.2702C213.781 88.1257 213.613 85.244 213.545 81.6251C213.478 78.0063 213.275 74.7895 212.938 71.9749C209.497 73.2482 206.529 74.2534 204.033 74.9906C201.469 75.7278 198.366 76.3644 194.723 76.9005ZM212.533 59.5099C212.263 55.8911 211.892 52.4398 211.42 49.156C211.015 45.8052 210.341 42.555 209.396 39.4052C209.126 38.534 208.823 37.6628 208.485 36.7916C208.081 35.9874 207.575 35.2168 206.968 34.4796C206.293 33.6084 205.585 33.1728 204.842 33.1728C204.1 33.1728 203.459 33.6419 202.92 34.5801C202.447 35.2503 202.043 35.9539 201.705 36.6911C201.368 37.4283 201.031 38.199 200.693 39.0031C200.423 39.8073 200.154 40.6115 199.884 41.4157C199.681 42.2869 199.412 43.1246 199.074 43.9288C197.995 47.0115 197.253 50.2618 196.848 53.6796C196.443 57.1644 196.005 60.5822 195.532 63.933C198.703 63.5309 201.604 62.9948 204.235 62.3246C206.866 61.5874 209.632 60.6492 212.533 59.5099Z" fill="#2F2F2F"/>
<path d="M283.452 75.9958C284.329 74.9906 284.801 73.8513 284.869 72.578C285.004 71.3717 285.172 70.534 285.375 70.0649C285.577 69.5288 285.847 69.1267 286.184 68.8586C286.522 68.5906 286.926 68.4565 287.399 68.4565C288.883 68.3895 290.401 68.423 291.953 68.5571C293.572 68.6911 295.056 68.9592 296.405 69.3613C297.08 69.5623 297.552 69.8639 297.822 70.266C298.092 70.7351 298.193 71.3047 298.126 71.9749C297.788 75.8618 297.012 79.3131 295.798 82.3288C294.651 85.2775 292.728 87.6565 290.03 89.466C288.681 90.4042 286.926 91.1414 284.768 91.6775C282.541 92.2136 280.652 92.5487 279.101 92.6827C277.751 92.7497 276.503 92.8168 275.356 92.8838C274.209 92.8838 272.928 92.9173 271.511 92.9843C271.039 92.9843 270.499 92.9843 269.892 92.9843C268.407 92.9843 266.687 92.9173 264.731 92.7832C262.1 92.5152 259.873 92.2471 258.052 91.9791C257.444 91.845 256.972 91.6105 256.635 91.2754C256.23 90.9403 255.994 90.4712 255.927 89.8681C255.859 89.734 255.825 89.6 255.825 89.466C255.758 89.3319 255.724 89.1979 255.724 89.0639C255.589 87.4555 255.454 85.8136 255.319 84.1382C255.184 82.5298 255.083 80.9215 255.016 79.3131C254.948 77.1016 254.915 74.8901 254.915 72.6785C254.847 71.8073 254.813 70.9696 254.813 70.1654C254.813 68.7581 254.847 67.3843 254.915 66.044C254.982 63.7654 255.083 61.4869 255.218 59.2084C255.353 56.9298 255.488 54.6848 255.623 52.4733C255.96 48.7204 256.534 45.0681 257.343 41.5162C258.22 37.9644 259.435 34.4796 260.986 31.0618C261.998 28.7162 263.314 26.7393 264.933 25.1309C266.552 23.5895 268.441 22.0817 270.6 20.6073C272.287 19.4681 274.378 18.6639 276.874 18.1948C278.493 17.9267 280.011 17.7927 281.428 17.7927C282.238 17.7927 283.013 17.8262 283.756 17.8932C284.43 18.0272 285.408 18.2283 286.69 18.4963C288.04 18.7644 289.018 19.066 289.625 19.401C291.514 20.3393 293.201 21.6126 294.685 23.2209C296.169 24.8293 297.181 26.4042 297.721 27.9456C298.665 29.956 299.272 32.1005 299.542 34.3791C299.745 36.2555 299.846 37.5958 299.846 38.4C299.846 38.534 299.812 38.6681 299.745 38.8021C299.677 39.7403 299.441 40.377 299.036 40.712C298.632 40.9801 297.957 41.0806 297.012 41.0136C295.461 40.8126 293.976 40.511 292.56 40.1089C291.076 39.6398 289.659 39.0702 288.309 38.4C287.77 38.1319 287.331 37.7969 286.994 37.3948C286.724 36.9927 286.589 36.423 286.589 35.6859C286.589 34.9487 286.319 33.8764 285.78 32.4691C285.24 31.0618 283.891 30.3581 281.732 30.3581C278.966 30.3581 276.638 31.5979 274.749 34.0775C272.86 36.5571 271.612 38.8356 271.005 40.9131C270.465 42.5215 270.094 44.1298 269.892 45.7382C269.689 47.3466 269.487 48.9885 269.284 50.6639C269.015 52.6073 268.812 54.5843 268.677 56.5948C268.542 58.6052 268.407 60.6157 268.273 62.6262C268.003 65.5079 267.935 67.8534 268.07 69.6628C268.138 71.4723 268.273 73.7843 268.475 76.599C268.475 76.867 268.475 77.1016 268.475 77.3026C268.542 77.5037 268.61 77.7382 268.677 78.0063C269.217 78.0063 269.925 78.0733 270.802 78.2073C271.612 78.2743 272.557 78.3079 273.636 78.3079C275.457 78.3749 277.313 78.2743 279.202 78.0063C281.158 77.7382 282.575 77.0681 283.452 75.9958Z" fill="#2F2F2F"/>
<path d="M302.011 31.7654C302.011 30.1571 302.079 28.9843 302.214 28.2471C302.214 27.845 302.315 27.4429 302.517 27.0408C302.652 26.6387 302.855 26.2366 303.125 25.8346C303.26 25.7005 303.428 25.533 303.631 25.3319C303.901 25.1979 304.17 25.1309 304.44 25.1309C305.385 24.9969 307.105 24.9298 309.601 24.9298C312.097 24.9969 313.818 24.9969 314.762 24.9298C314.897 24.9298 315.032 24.9298 315.167 24.9298C315.302 24.9298 315.437 24.9298 315.572 24.9298C316.584 24.9969 317.292 25.2984 317.697 25.8346C318.102 26.3707 318.304 27.0743 318.304 27.9456C318.304 29.889 318.439 36.7916 318.709 48.6534C318.776 51.9372 318.81 54.9529 318.81 57.7005C318.878 60.5152 318.878 62.5257 318.81 63.7319C318.743 68.088 318.675 72.4775 318.608 76.9005C318.54 81.2565 318.439 85.6126 318.304 89.9686C318.304 90.9068 318.169 91.5099 317.899 91.778C317.562 92.0461 316.955 92.2136 316.078 92.2806C315.066 92.3476 313.447 92.3812 311.22 92.3812C308.927 92.4482 307.274 92.4817 306.262 92.4817C305.924 92.4817 305.553 92.4482 305.149 92.3812C304.811 92.3141 304.44 92.2471 304.035 92.1801C303.361 92.0461 302.889 91.8115 302.619 91.4764C302.416 91.2084 302.281 90.7058 302.214 89.9686C302.214 89.2314 302.214 88.4942 302.214 87.7571C302.146 87.0199 302.113 86.3162 302.113 85.6461C302.113 80.888 302.113 76.1298 302.113 71.3717C302.113 66.6806 302.113 61.956 302.113 57.1979C302.18 57.1979 302.214 57.1979 302.214 57.1979C302.214 56.0586 302.18 54.7518 302.113 53.2775C302.113 51.8031 302.113 50.2953 302.113 48.7539C302.113 45.9393 302.113 43.2586 302.113 40.712C302.113 35.6188 302.079 32.6366 302.011 31.7654ZM304.541 14.5759C303.799 13.9728 303.226 13.2691 302.821 12.4649C302.484 11.5937 302.315 10.689 302.315 9.75079C302.248 7.6733 302.72 5.86387 303.732 4.32251C304.811 2.84817 306.228 1.64188 307.982 0.703665C308.792 0.234555 309.77 0 310.917 0C311.659 0 312.468 0.100524 313.346 0.301571C315.504 0.837696 317.124 2.17801 318.203 4.32251C318.945 5.79686 319.316 7.2712 319.316 8.74555C319.316 8.87958 319.316 9.01361 319.316 9.14764C319.181 10.756 318.675 12.3644 317.798 13.9728C317.191 15.112 316.381 15.9497 315.369 16.4859C314.357 17.022 313.109 17.2901 311.625 17.2901C310.411 17.223 309.196 16.9885 307.982 16.5864C306.768 16.1173 305.621 15.4471 304.541 14.5759Z" fill="#2F2F2F"/>
<path d="M399.606 22.7183C399.673 26.8063 399.741 30.6597 399.808 34.2785C399.875 36.9592 399.909 39.7403 399.909 42.622C399.909 43.6942 399.909 44.7665 399.909 45.8387C399.842 52.2723 399.774 58.7058 399.707 65.1393C399.572 71.5728 399.471 78.0063 399.403 84.4398C399.336 85.512 399.302 86.5173 399.302 87.4555C399.235 88.3937 399.201 89.399 399.201 90.4712C399.201 91.1414 399.133 91.577 398.998 91.778C398.796 91.912 398.391 92.0796 397.784 92.2806C396.367 92.5487 394.546 92.6827 392.319 92.6827C390.093 92.6157 388.305 92.5822 386.956 92.5822C386.484 92.5822 386.113 92.4147 385.843 92.0796C385.64 91.8115 385.506 91.3759 385.438 90.7728C385.371 89.8346 385.371 88.9298 385.438 88.0586C385.438 87.2545 385.438 86.3832 385.438 85.445C385.506 84.1047 385.539 82.4628 385.539 80.5194C385.607 78.5759 385.674 76.8335 385.742 75.2921C384.662 77.7717 383.414 80.0838 381.997 82.2283C380.513 84.4398 378.827 86.4838 376.938 88.3602C376.465 88.7623 375.959 89.1644 375.42 89.5665C374.88 89.9686 374.34 90.3707 373.8 90.7728C372.384 91.644 370.899 92.1466 369.348 92.2806C367.796 92.4147 366.244 92.2471 364.693 91.778C363.748 91.5099 363.074 91.1079 362.669 90.5717C362.331 90.0356 362.129 89.2984 362.062 88.3602C362.062 86.1487 362.028 83.9707 361.96 81.8262C361.96 79.6147 361.96 77.4367 361.96 75.2921C361.893 69.6628 361.859 64.0335 361.859 58.4042C361.859 52.7749 361.859 47.1456 361.859 41.5162C361.859 39.6398 361.893 37.5623 361.96 35.2838C362.028 32.9382 362.062 31.6314 362.062 31.3634C361.589 31.4304 361.151 31.5644 360.746 31.7654C360.341 31.9665 359.97 32.2346 359.633 32.5696C358.958 33.2398 358.351 33.977 357.811 34.7812C357.272 35.6524 356.833 36.5236 356.496 37.3948C355.416 40.0754 354.708 42.3874 354.371 44.3309C354.033 46.2743 353.764 48.6869 353.561 51.5686C353.291 56.3937 352.92 61.2188 352.448 66.044C352.043 70.9361 351.2 75.6942 349.918 80.3183C349.243 82.5969 348.366 84.7079 347.287 86.6513C346.207 88.5278 344.757 90.2031 342.935 91.6775C341.856 92.6157 340.372 93.4869 338.483 94.2911C336.661 95.1623 335.008 95.6984 333.524 95.8995C332.85 95.9665 332.175 96 331.5 96C330.961 96 330.455 95.9665 329.982 95.8995C328.768 95.8325 327.587 95.5644 326.44 95.0953C325.901 94.8272 325.361 94.4921 324.821 94.0901C324.282 93.688 323.843 93.2524 323.506 92.7832C322.561 91.577 321.819 90.2702 321.279 88.8628C320.74 87.3885 320.436 85.8806 320.369 84.3393C320.301 83.6021 320.267 82.8314 320.267 82.0272C320.267 81.9602 320.267 81.8932 320.267 81.8262C320.267 81.089 320.301 80.3853 320.369 79.7152C320.436 79.1791 320.571 78.6429 320.773 78.1068C320.976 77.5037 321.178 76.9675 321.381 76.4984C321.515 76.0963 321.752 75.8283 322.089 75.6942C322.426 75.4932 322.764 75.3592 323.101 75.2921C324.045 75.0911 325.024 74.9906 326.036 74.9906C326.98 74.9906 327.958 75.0911 328.97 75.2921C329.712 75.4932 330.218 75.7948 330.488 76.1969C330.758 76.599 330.758 77.2021 330.488 78.0063C330.353 78.5424 330.252 79.112 330.185 79.7152C330.185 80.3183 330.286 80.9215 330.488 81.5246C330.691 82.3958 331.062 82.8984 331.601 83.0325C332.141 83.2335 332.782 83.0325 333.524 82.4293C334.401 81.6921 335.076 80.888 335.548 80.0168C336.088 79.0785 336.56 78.1068 336.965 77.1016C337.639 75.0241 338.179 72.9466 338.584 70.8691C338.989 68.7246 339.259 66.5801 339.394 64.4356C339.596 61.688 339.798 58.9403 340.001 56.1927C340.271 53.445 340.507 50.6974 340.709 47.9497C340.844 46.3414 340.979 44.733 341.114 43.1246C341.249 41.5162 341.485 39.9079 341.822 38.2995C342.227 36.222 342.834 34.111 343.644 31.9665C344.521 29.822 345.533 27.8785 346.68 26.1361C347.827 24.3937 349.007 22.9864 350.222 21.9141C351.436 20.8419 352.38 20.1047 353.055 19.7026C354.607 18.7644 356.091 18.1277 357.508 17.7927C358.857 17.4576 360.375 17.1895 362.062 16.9885C363.546 16.8545 364.996 16.7539 366.413 16.6869C367.897 16.6869 369.348 16.8209 370.765 17.089C371.979 17.2901 372.856 17.6921 373.396 18.2953C373.935 18.9654 374.205 19.8702 374.205 21.0094C374.205 23.0869 374.205 25.0304 374.205 26.8398C374.205 28.7162 374.205 30.6932 374.205 32.7707C374.273 35.5183 374.306 38.266 374.306 41.0136C374.374 43.8283 374.408 46.6094 374.408 49.3571C374.408 50.5634 374.408 52.0377 374.408 53.7801C374.408 55.4555 374.374 57.1979 374.306 59.0073C374.306 61.6209 374.306 64 374.306 66.1445C374.306 68.289 374.306 69.4618 374.306 69.6628C374.441 69.3948 374.576 69.0932 374.711 68.7581C374.914 68.356 375.082 68.0545 375.217 67.8534C377.106 63.6314 378.658 59.3424 379.872 54.9864C381.087 50.6304 382.099 46.2073 382.908 41.7173C383.313 39.5058 383.718 37.2942 384.123 35.0827C384.46 32.9382 384.73 30.7267 384.932 28.4482C385 27.2419 385.067 26.2366 385.134 25.4325C385.269 24.6283 385.337 23.623 385.337 22.4168C385.472 20.8084 385.775 19.7026 386.248 19.0995C386.787 18.5634 387.901 18.2618 389.587 18.1948C390.599 18.1277 391.847 18.1277 393.331 18.1948C394.748 18.1948 395.963 18.2283 396.975 18.2953C397.649 18.2953 398.189 18.4628 398.594 18.7979C398.931 19.066 399.167 19.5351 399.302 20.2052C399.369 20.6073 399.437 21.0429 399.504 21.512C399.572 21.9141 399.606 22.3162 399.606 22.7183Z" fill="#2F2F2F"/>
<path d="M425.816 16.9885C426.22 18.4628 426.423 19.9707 426.423 21.512C426.423 23.0534 426.288 24.5948 426.018 26.1361C425.951 26.4712 425.883 26.8063 425.816 27.1414C425.748 27.4764 425.681 27.8115 425.613 28.1466C425.276 30.1571 424.5 31.8325 423.286 33.1728C422.071 34.5131 420.553 35.5853 418.732 36.3895C417.652 36.8586 416.505 37.1937 415.291 37.3948C414.549 37.5288 413.807 37.5958 413.065 37.5958C412.66 37.5958 412.221 37.5623 411.749 37.4953C410.872 37.4283 410.299 37.1602 410.029 36.6911C409.961 36.5571 409.928 36.3895 409.928 36.1885C409.928 35.7864 410.063 35.3508 410.332 34.8817C411.277 33.4743 412.019 32.0335 412.559 30.5592C413.099 29.0178 413.571 27.4764 413.976 25.9351C414.38 24.3267 414.515 22.7183 414.38 21.1099C414.245 19.5686 413.807 18.0607 413.065 16.5864C412.727 15.7822 412.694 15.0785 412.964 14.4754C413.301 13.8723 413.908 13.5037 414.785 13.3696C415.797 13.1686 416.843 13.0681 417.922 13.0681C418.125 13.0681 418.293 13.0681 418.428 13.0681C419.71 13.1351 420.756 13.2021 421.565 13.2691C422.645 13.4031 423.556 13.8052 424.298 14.4754C425.04 15.0785 425.546 15.9162 425.816 16.9885Z" fill="#2F2F2F"/>
<path d="M460.141 79.5141C459.13 81.2565 458.084 82.9654 457.004 84.6408C455.925 86.3162 454.643 87.8576 453.159 89.2649C452.214 90.0691 451.27 90.8733 450.325 91.6775C449.381 92.4817 448.335 93.1518 447.188 93.688C445.029 94.6932 442.837 95.2293 440.611 95.2963C440.476 95.2963 440.307 95.2963 440.105 95.2963C438.081 95.2963 436.023 94.8942 433.932 94.0901C432.785 93.6209 431.874 92.9508 431.199 92.0796C430.525 91.2084 429.985 90.2031 429.58 89.0639C429.243 87.9916 428.973 86.9194 428.771 85.8471C428.568 84.7079 428.467 83.5686 428.467 82.4293C428.467 82.1613 428.467 81.8932 428.467 81.6251C428.467 81.223 428.467 80.8545 428.467 80.5194C428.467 79.8492 428.501 79.1791 428.568 78.5089C428.636 78.1068 428.737 77.7047 428.872 77.3026C429.007 76.8335 429.175 76.3979 429.378 75.9958C429.513 75.7948 429.715 75.5602 429.985 75.2921C430.255 75.0911 430.525 74.9571 430.794 74.8901C431.874 74.488 432.987 74.3204 434.134 74.3874C435.281 74.3874 436.394 74.555 437.473 74.8901C438.148 75.0911 438.553 75.3592 438.688 75.6942C438.89 76.0293 438.924 76.5319 438.789 77.2021C438.654 77.9393 438.587 78.6764 438.587 79.4136C438.519 80.2178 438.654 80.9885 438.991 81.7257C439.194 82.2618 439.43 82.5969 439.7 82.7309C440.037 82.8649 440.442 82.7644 440.914 82.4293C441.319 82.2283 441.69 81.9602 442.027 81.6251C442.432 81.3571 442.803 81.0555 443.14 80.7204C444.422 79.5141 445.603 78.2073 446.682 76.8C447.694 75.3927 448.673 73.9183 449.617 72.377C450.292 71.3047 451.169 69.7969 452.248 67.8534C453.26 65.9099 453.8 64.8712 453.867 64.7372C453.597 64.4021 453.091 63.866 452.349 63.1288C451.675 62.3246 450.933 61.4534 450.123 60.5152C448.841 59.0408 447.559 57.533 446.278 55.9916C444.996 54.4503 444.085 53.2775 443.545 52.4733C442.398 50.6639 441.353 48.955 440.408 47.3466C439.464 45.6712 438.587 43.7613 437.777 41.6168C436.9 39.6063 436.327 37.4283 436.057 35.0827C435.719 32.7372 435.753 30.4921 436.158 28.3476C436.428 26.6052 437.069 24.8963 438.081 23.2209C439.025 21.5456 440.374 20.3058 442.128 19.5016C443.545 18.7644 445.097 18.2618 446.784 17.9937C447.795 17.8597 448.807 17.7927 449.819 17.7927C450.494 17.7927 451.169 17.8262 451.843 17.8932C454.542 18.1613 457.241 18.8314 459.939 19.9037C462.638 20.9759 464.999 22.4838 467.023 24.4272C467.09 24.0251 467.124 23.2545 467.124 22.1152C467.124 21.0429 467.124 20.2723 467.124 19.8031C467.192 19.267 467.326 18.8649 467.529 18.5969C467.799 18.3288 468.203 18.2283 468.743 18.2953C470.093 18.2953 472.049 18.2953 474.613 18.2953C477.244 18.3623 478.627 18.3958 478.762 18.3958C479.504 18.3958 480.111 18.4963 480.583 18.6974C480.988 18.8314 481.292 19.267 481.494 20.0042C481.696 21.1435 481.764 22.2492 481.696 23.3215C481.629 24.3267 481.595 25.399 481.595 26.5382C481.663 27.2084 481.696 30.3581 481.696 35.9874C481.764 41.6168 481.798 47.8827 481.798 54.7853C481.865 57.801 481.899 60.8168 481.899 63.8325C481.899 66.8482 481.899 69.7298 481.899 72.4775C481.899 77.5707 481.933 81.8597 482 85.3445C482 87.0869 482 88.3937 482 89.2649C482 90.2702 482 90.8398 482 90.9738C481.933 91.3759 481.798 91.6775 481.595 91.8785C481.393 92.0796 481.123 92.2136 480.786 92.2806C480.246 92.3476 479.706 92.3812 479.166 92.3812C478.627 92.3812 478.087 92.4147 477.547 92.4817C476.333 92.4817 474.916 92.4482 473.297 92.3812C471.61 92.3812 470.43 92.3476 469.755 92.2806C468.473 92.1466 467.698 91.845 467.428 91.3759C467.09 90.9068 466.922 90.0691 466.922 88.8628C466.989 86.8524 467.023 84.7414 467.023 82.5298C466.955 80.3183 466.955 78.1738 467.023 76.0963C466.618 75.8283 466.078 75.4262 465.404 74.8901C464.662 74.2869 464.054 73.8178 463.582 73.4827C462.975 74.488 462.402 75.4932 461.862 76.4984C461.322 77.5037 460.749 78.5089 460.141 79.5141ZM467.124 38.8021C466.584 38.333 465.37 37.3613 463.481 35.8869C461.592 34.4126 459.939 33.2063 458.522 32.2681C457.645 31.7319 456.667 31.2628 455.588 30.8607C454.441 30.5257 453.361 30.3916 452.349 30.4586C451.27 30.5257 450.46 30.8942 449.921 31.5644C449.313 32.2346 449.01 33.1058 449.01 34.178C448.942 34.5131 448.976 34.8482 449.111 35.1832C449.179 35.5183 449.246 35.8534 449.313 36.1885C449.718 37.3277 450.258 38.3665 450.933 39.3047C451.54 40.3099 452.181 41.2482 452.855 42.1194C454.542 44.3309 456.296 46.4419 458.118 48.4524C459.872 50.5298 461.693 52.5738 463.582 54.5843C464.122 55.1204 464.83 55.8576 465.707 56.7958C466.584 57.734 467.023 58.1696 467.023 58.1026C466.955 55.1539 466.955 51.9372 467.023 48.4524C467.09 45.0346 467.124 41.8178 467.124 38.8021Z" fill="#2F2F2F"/>
</svg>
